<?xml version="1.0" standalone="no"?><!DOCTYPE svg PUBLIC "-//W3C//DTD SVG 1.1//EN" "http://www.w3.org/Graphics/SVG/1.1/DTD/svg11.dtd"><svg t="1691137930764" class="icon" viewBox="0 0 1024 1024" version="1.1" xmlns="http://www.w3.org/2000/svg" p-id="15704" xmlns:xlink="http://www.w3.org/1999/xlink" width="300" height="300"><path d="M494.954937 7.180962l327.835544 115.141671a51.848101 51.848101 0 0 1 29.216405 25.781468l8.723443 17.498734a51.848101 51.848101 0 0 1-9.864101 59.923443L716.644456 358.827747a103.696203 103.696203 0 0 1-56.631089 28.80162l-86.301164 13.869367a103.696203 103.696203 0 0 1-50.94076-4.614481l-324.569114-114.545418a51.848101 51.848101 0 0 1-34.077164-41.556253l-6.208811-43.422785a51.848101 51.848101 0 0 1 23.720507-51.2L385.685063 17.706127a51.848101 51.848101 0 0 1 23.240912-7.790178l64.473114-5.469974a51.848101 51.848101 0 0 1 21.56881 2.734987zM943.000304 309.766481a55.270076 55.270076 0 0 1 33.571645 50.837063v347.265621a103.696203 103.696203 0 0 1-7.880911 39.637873l-13.558279 32.793924a103.696203 103.696203 0 0 1-23.305721 34.478987l-149.452152 146.211646a56.19038 56.19038 0 0 1-52.444354 14.478582 39.482329 39.482329 0 0 1-30.227443-38.380557V586.090937a103.696203 103.696203 0 0 1 5.210734-32.495798l17.27838-52.340658a103.696203 103.696203 0 0 1 24.498227-40.182278l137.138228-139.601013a53.494278 53.494278 0 0 1 59.171646-11.704709z" fill="#607390" p-id="15705"></path><path d="M630.952506 641.08881m19.572659 0l0 0q19.572658 0 19.572658 19.572658l0 245.319291q0 19.572658-19.572658 19.572659l0 0q-19.572658 0-19.572659-19.572659l0-245.319291q0-19.572658 19.572659-19.572658Z" fill="#607390" p-id="15706"></path><path d="M888.520911 252.344709c7.647595 7.660557 7.647595 20.078177 0 27.738734L750.112405 418.803038a19.559696 19.559696 0 0 1-27.686886 0 19.637468 19.637468 0 0 1 0-27.738734l138.421468-138.719595a19.559696 19.559696 0 0 1 27.673924 0zM162.738228 318.567696c-3.707139 10.188152 1.542481 21.452152 11.717671 25.159291l303.453974 110.695697a19.58562 19.58562 0 0 0 25.120405-11.717671 19.637468 19.637468 0 0 0-11.730632-25.146329l-303.441013-110.695697a19.58562 19.58562 0 0 0-25.133367 11.704709z" fill="#607390" p-id="15707"></path><path d="M177.98157 371.232405l303.16881 111.266025a103.696203 103.696203 0 0 1 42.359898 29.112709l43.798684 50.137114a103.696203 103.696203 0 0 1 25.6 68.219139V949.597975c0 20.998481-9.41043 40.882228-25.625924 54.220152a53.818329 53.818329 0 0 1-55.957063 7.608708L102.33519 830.217722a101.816709 101.816709 0 0 1-43.785722-37.071393 99.716861 99.716861 0 0 1-16.44881-54.855291V470.378937a103.696203 103.696203 0 0 1 38.65276-80.753418l3.746025-3.020152a96.204152 96.204152 0 0 1 93.482127-15.385924z" fill="#3A7AEA" p-id="15708"></path><path d="M80.027544 362.353418l58.199494-44.019038a12.962025 12.962025 0 0 0 5.145924-10.343696v-72.017013a12.962025 12.962025 0 0 0-24.550076-5.806987l-58.199494 116.03605a12.962025 12.962025 0 0 0 19.404152 16.150684zM942.533671 271.074835l-39.132355-25.781468a12.962025 12.962025 0 0 1-4.757063-5.664405l-24.627848-56.825519a8.295696 8.295696 0 0 1 14.180456-8.399392l65.587848 84.512405a8.399392 8.399392 0 0 1-11.251038 12.158379zM559.842835 473.749063l117.345216-27.298025a12.962025 12.962025 0 0 1 15.230379 16.695089l-38.562025 116.334177a12.962025 12.962025 0 0 1-22.009519 4.510785l-78.78319-89.036152a12.962025 12.962025 0 0 1 6.779139-21.205874zM627.206481 1020.837266l62.152911-14.115646a13.558278 13.558278 0 0 0 1.98319-25.820354l-10.162228-4.018228a51.848101 51.848101 0 0 0-54.621974 10.538127l-11.419545 10.784405a13.299038 13.299038 0 0 0 12.054684 22.631696z" fill="#607390" p-id="15709"></path></svg>