<?xml version="1.0" standalone="no"?><!DOCTYPE svg PUBLIC "-//W3C//DTD SVG 1.1//EN" "http://www.w3.org/Graphics/SVG/1.1/DTD/svg11.dtd"><svg t="1691137704849" class="icon" viewBox="0 0 1024 1024" version="1.1" xmlns="http://www.w3.org/2000/svg" p-id="4141" xmlns:xlink="http://www.w3.org/1999/xlink" width="300" height="300"><path d="M424.106667 53.344l120.469333 88.32-51.434667 29.696 0.896 315.221333-137.173333 79.2-0.896-315.221333-51.434667 29.696z" fill="#16CCD5" p-id="4142"></path><path d="M151.584 369.376l120.469333 88.32-51.445333 29.706667 0.448 157.6-137.152 79.178666-0.448-157.6-51.445333 29.706667z" fill="#16CCD5" p-id="4143"></path><path d="M781.674667 171.658667v474.4l-136.266667 78.666666V250.848z" fill="#2168FB" opacity=".8" p-id="4144"></path><path d="M781.685333 171.669333l-136.277333 79.2-137.173333-79.2 136.277333-79.2z" fill="#2168FB" p-id="4145"></path><path d="M645.397333 250.869333V725.269333l-137.173333-78.933333V171.669333z" fill="#2168FB" opacity=".6" p-id="4146"></path><path d="M645.408 408.736v316.533333L509.141333 803.946667V487.936z" fill="#2168FB" opacity=".8" p-id="4147"></path><path d="M645.408 408.736l-136.277333 79.2-137.162667-79.2 136.277333-79.189333z" fill="#2168FB" p-id="4148"></path><path d="M509.130667 487.936v316.010667l-137.173334-78.933334V408.746667z" fill="#2168FB" opacity=".6" p-id="4149"></path><path d="M509.141333 645.525333l-136.277333 79.189334-137.173333-79.189334 136.277333-79.2z" fill="#2168FB" p-id="4150"></path><path d="M509.098667 645.546667v158.389333l-136.277334 78.421333V724.725333z" fill="#2168FB" opacity=".8" p-id="4151"></path><path d="M372.864 724.757333v157.621334L235.701333 803.445333V645.578667z" fill="#2168FB" opacity=".6" p-id="4152"></path><path d="M872.576 305.770667l120.469333 88.32-51.434666 29.696 0.896 315.221333-137.130667 79.178667-0.896-315.221334-51.434667 29.696z" fill="#16CCD5" p-id="4153"></path><path d="M600.064 621.813333l120.469333 88.32-51.445333 29.706667 0.448 157.6-137.152 79.178667-0.448-157.6-51.445333 29.706666z" fill="#16CCD5" p-id="4154"></path></svg>