<?xml version="1.0" standalone="no"?><!DOCTYPE svg PUBLIC "-//W3C//DTD SVG 1.1//EN" "http://www.w3.org/Graphics/SVG/1.1/DTD/svg11.dtd"><svg t="1691137977405" class="icon" viewBox="0 0 1243 1024" version="1.1" xmlns="http://www.w3.org/2000/svg" p-id="18614" xmlns:xlink="http://www.w3.org/1999/xlink" width="364.16015625" height="300"><path d="M1243.225397 614.196825c-1.828571 17.269841-17.67619 26.006349-31.085714 33.930159-12.596825 7.314286-25.193651 14.628571-37.587302 21.942857-20.114286 11.580952-40.228571 23.365079-60.342857 34.946032-25.193651 14.628571-50.184127 29.257143-75.377778 43.68254-27.631746 16.050794-55.466667 32.304762-83.301587 48.355555-27.834921 16.253968-55.669841 32.507937-83.707937 48.55873-25.6 15.034921-51.2 29.663492-76.8 44.698413-20.926984 12.190476-41.650794 24.177778-62.577778 36.368254-13.612698 7.92381-27.428571 15.847619-41.041269 23.771429-10.361905 5.892063-20.114286 11.987302-31.898413 15.441269-30.679365 8.736508-64.609524 5.892063-92.444445-10.15873-9.955556-5.892063-19.911111-11.580952-29.866666-17.269841-18.285714-10.565079-36.368254-20.926984-54.653968-31.492063-23.974603-13.815873-47.949206-27.631746-71.720635-41.447619-27.225397-15.644444-54.653968-31.492063-81.879365-47.136508-28.24127-16.253968-56.279365-32.507937-84.520635-48.761905C217.396825 753.980952 190.984127 738.742857 164.165079 723.301587l-68.063492-39.212698c-16.253968-9.346032-32.507937-18.692063-48.761904-28.24127-7.314286-4.266667-14.831746-8.533333-22.146032-13.003175C13.409524 636.342857 2.031746 625.574603 2.031746 611.149206c0 13.206349 0 26.412698-0.203175 39.822223 0 4.673016-0.406349 9.549206 0 14.425396 1.015873 12.8 10.971429 22.755556 21.536508 29.053969 6.501587 3.860317 13.003175 7.51746 19.707937 11.377777 17.066667 9.752381 33.930159 19.707937 50.996825 29.460318 24.584127 14.222222 48.965079 28.24127 73.549207 42.463492 29.053968 16.863492 58.311111 33.726984 87.568254 50.590476 30.47619 17.67619 60.749206 35.149206 91.225396 52.825397 29.053968 16.660317 57.701587 33.320635 86.755556 49.980952 24.177778 13.815873 47.949206 27.631746 72.126984 41.650794 16.253968 9.346032 32.507937 18.692063 48.761905 28.24127 9.346032 5.28254 18.692063 11.580952 29.053968 15.238095 31.898413 11.580952 69.485714 9.142857 98.946032-8.126984l33.523809-19.504762c20.72381-11.987302 41.244444-23.974603 61.76508-35.961905 26.819048-15.644444 53.638095-31.085714 80.660317-46.933333 30.069841-17.473016 60.139683-34.946032 90.006349-52.419048l90.209524-52.419047c26.819048-15.644444 53.84127-31.288889 80.863492-47.136508 20.926984-12.190476 41.853968-24.177778 62.780953-36.571429 11.580952-6.704762 23.161905-13.409524 34.539682-20.114286 3.453968-2.031746 7.111111-4.063492 10.361905-6.501587 8.736508-6.704762 15.644444-15.644444 15.847619-27.225397 0.203175-5.892063 0-11.580952 0-17.269841 0-11.580952 0-23.161905 0.203175-34.539682 0.609524 1.015873 0.406349 1.828571 0.406349 2.641269 0 0.406349 0-0.203175 0 0z m0 0" fill="#7A9EFD" p-id="18615"></path><path d="M1220.87619 580.469841c29.866667 17.269841 30.069841 45.511111 0.40635 62.780953l-542.273016 314.920635c-29.663492 17.269841-78.425397 17.269841-108.292064 0l-545.726984-314.920635c-29.866667-17.269841-30.069841-45.511111-0.406349-62.780953L566.857143 265.142857c29.663492-17.269841 78.425397-17.269841 108.292063 0l545.726984 315.326984z m0 0" fill="#E4ECF9" p-id="18616"></path><path d="M696.888889 583.92381c1.015873 0 2.031746 0 2.844444 0.203174h0.203175c0.812698 0.203175 1.625397 0.609524 2.438095 0.812699l-31.492063-18.285715h-0.203175c-0.406349-0.203175-0.609524-0.406349-0.812698-0.406349-0.406349-0.203175-0.609524-0.203175-0.812699-0.406349-0.203175 0-0.406349-0.203175-0.609524-0.203175h-0.406349c-0.406349 0-0.812698-0.203175-1.015873-0.203174h-2.438095c-0.609524 0-0.812698 0.203175-1.422222 0.406349-0.203175 0-0.406349 0.203175-0.609524 0.203174-0.203175 0-0.406349 0.203175-0.609524 0.203175-0.203175 0.203175-0.609524 0.203175-0.812698 0.203175-0.812698 0.406349-1.625397 0.812698-2.438096 1.015873L564.825397 621.91746l31.492063 18.285715 94.069842-54.247619c1.015873-0.609524 2.234921-1.015873 3.047619-1.422223 0.203175 0 0.406349-0.203175 0.609523-0.203174 1.219048-0.203175 2.031746-0.406349 2.844445-0.406349z m-175.339683 99.555555l-31.492063-18.08254-0.203175-72.736508 31.492064 18.285715 0.203174 72.533333z m0 0" fill="#2A2ABC" p-id="18617"></path><path d="M411.022222 762.514286c0.203175-1.219048 0.609524-2.438095 0.812699-3.657143 0-0.203175 0-0.203175 0.203174-0.406349 0.406349-1.219048 0.812698-2.64127 1.422222-3.860318 0.609524-1.219048 1.219048-2.64127 2.031746-4.063492v-0.203174c0.812698-1.219048 1.422222-2.438095 2.438096-3.657143 0-0.203175 0.203175-0.203175 0.203174-0.40635 0.812698-1.015873 1.625397-2.031746 2.438096-2.844444l0.609523-0.609524c0.812698-0.812698 1.422222-1.422222 2.234921-2.031746 0.406349-0.406349 0.812698-0.609524 0.812698-0.812698 1.015873-0.812698 2.234921-1.625397 3.250794-2.234921l94.069841-54.247619-31.492063-18.285714-94.069841 54.247619c-1.015873 0.609524-2.234921 1.422222-3.250794 2.23492-0.406349 0.203175-0.812698 0.609524-0.812698 0.812699-0.609524 0.406349-1.015873 0.812698-1.422223 1.219048-0.203175 0.203175-0.406349 0.609524-0.812698 0.812698l-0.609524 0.609524c-0.203175 0.203175-0.406349 0.406349-0.609524 0.812698-0.609524 0.609524-0.812698 1.015873-1.422222 1.625397-0.203175 0.203175-0.406349 0.406349-0.609524 0.812698 0 0.203175-0.203175 0.203175-0.203174 0.40635-0.203175 0.203175-0.406349 0.406349-0.40635 0.609523-0.406349 0.609524-0.812698 0.812698-0.812698 1.422223-0.406349 0.609524-0.609524 0.812698-0.812698 1.422222v0.406349c-0.203175 0.406349-0.406349 0.812698-0.812699 1.219048-0.203175 0.609524-0.609524 0.812698-0.812698 1.422222l-0.609524 1.219048c-0.203175 0.609524-0.406349 1.015873-0.609524 1.422222l-0.609524 1.625397c0 0.203175-0.203175 0.609524-0.203174 0.812698 0 0.203175 0 0.203175-0.203175 0.406349 0 0.203175-0.203175 0.406349-0.203174 0.609524-0.203175 0.812698-0.406349 1.219048-0.609524 2.031746 0 0.406349-0.203175 0.812698-0.203175 1.015873 0 0.203175 0 0.406349-0.203174 0.609524 0 0.203175 0 0.406349-0.203175 0.609524-0.203175 1.015873-0.203175 2.234921-0.203175 3.250793 0 3.860317 1.015873 7.111111 2.844445 8.939683 0.609524 0.812698 1.219048 1.219048 2.031746 1.625397l31.492063 18.285714c-3.047619-1.828571-4.87619-5.485714-4.87619-10.768254 0-1.219048 0.203175-2.438095 0.406349-3.860317 0.406349-0.203175 0.406349-0.406349 0.406349-0.609524z m0 0" fill="#2A2ABC" p-id="18618"></path><path d="M798.069841 25.193651c13.612698-7.92381 24.990476-1.422222 24.990476 14.222222l1.015873 367.542857c0 15.847619-11.174603 35.352381-24.787301 43.276191l-203.174603 117.43492 0.203174 72.736508 94.069842-54.247619c9.142857-5.485714 16.863492-1.015873 16.863492 9.549207s-7.51746 23.771429-16.660318 29.053968l-263.314286 151.974603c-9.142857 5.485714-16.863492 1.015873-16.863492-9.549206s7.51746-23.771429 16.660318-29.053969l94.069841-54.247619-0.203174-72.736508-203.174604 117.231746c-13.612698 7.92381-24.990476 1.422222-24.990476-14.222222l-0.812698-367.746032c0-15.847619 11.174603-35.352381 24.787301-43.27619L798.069841 25.193651z m0 0" fill="#4040FF" p-id="18619"></path><path d="M293.180952 713.955556l-31.492063-18.285715c0 4.87619 1.015873 8.939683 3.047619 11.784127 1.015873 1.828571 2.438095 3.250794 4.266667 4.063492l31.492063 18.285715c-4.469841-2.438095-7.314286-7.92381-7.314286-15.847619z m0 0" fill="#2A2ABC" p-id="18620"></path><path d="M784.457143 5.28254c-0.609524-0.406349-0.812698-0.609524-1.422222-0.812699h-0.203175c-0.203175 0-0.406349-0.203175-0.406349-0.203174-0.203175 0-0.406349-0.203175-0.812699-0.203175-0.203175 0-0.609524-0.203175-0.812698-0.203175-0.203175 0-0.406349 0-0.609524-0.203174-0.609524 0-1.015873-0.203175-1.422222-0.203175h-3.453968c-0.203175 0-0.406349 0.203175-0.609524 0.203175-0.406349 0-0.812698 0.203175-1.015873 0.203174-0.203175 0-0.406349 0-0.609524 0.203175-0.203175 0-0.406349 0.203175-0.609524 0.203175-0.609524 0.203175-1.015873 0.406349-1.828571 0.609523-0.203175 0-0.406349 0.203175-0.609524 0.203175-0.203175 0-0.203175 0.203175-0.406349 0.203175-1.015873 0.406349-2.031746 0.812698-3.047619 1.625397l-481.52381 277.942857c-1.219048 0.812698-2.438095 1.625397-3.860317 2.641269-0.203175 0.203175-0.406349 0.406349-0.812699 0.609524-1.219048 0.812698-2.438095 2.031746-3.453968 3.047619-0.203175 0.203175-0.203175 0.203175-0.406349 0.203175l-0.609524 0.609524c-0.609524 0.609524-1.015873 1.015873-1.625397 1.828571l-0.609524 0.609524c-0.203175 0.203175-0.406349 0.406349-0.406349 0.609524-0.406349 0.406349-0.812698 0.812698-0.812698 1.219047-0.203175 0.203175-0.406349 0.609524-0.609524 0.609524-0.203175 0.203175-0.406349 0.609524-0.609524 0.812699-0.203175 0.406349-0.609524 0.609524-0.812698 0.812698-0.203175 0.203175-0.406349 0.406349-0.609524 0.812698-0.203175 0.406349-0.609524 0.812698-0.609524 1.015873-0.203175 0.203175-0.406349 0.609524-0.609524 0.609524 0 0.203175-0.203175 0.203175-0.203174 0.40635-0.406349 0.812698-0.812698 1.422222-1.219048 2.23492v0.203175c0 0.203175-0.203175 0.406349-0.203174 0.406349-0.406349 0.609524-0.609524 1.015873-0.812699 1.422222-0.203175 0.203175-0.203175 0.609524-0.406349 0.812699-0.203175 0.203175-0.203175 0.609524-0.406349 0.812698-0.203175 0.203175-0.203175 0.406349-0.406349 0.812698-0.406349 0.609524-0.609524 1.015873-0.609524 1.828572 0 0.203175-0.203175 0.203175-0.203175 0.406349v0.203175c-0.406349 0.812698-0.812698 1.422222-0.812698 2.438095 0 0.203175-0.203175 0.203175-0.203175 0.406349-0.203175 0.406349-0.203175 0.609524-0.406349 0.812699-0.203175 0.406349-0.406349 0.812698-0.406349 1.015873-0.203175 0.406349-0.203175 0.609524-0.203175 0.812698-0.203175 0.406349-0.203175 0.812698-0.406349 1.015873 0 0.203175-0.203175 0.406349-0.203175 0.812698-0.203175 0.406349-0.203175 0.812698-0.406349 1.015873-0.203175 0.406349-0.203175 0.812698-0.406349 1.219048 0 0.203175 0 0.406349-0.203175 0.609524 0 0.406349-0.203175 0.609524-0.203174 0.812698-0.203175 0.812698-0.203175 1.219048-0.40635 2.031746 0 0.203175 0 0.406349-0.203174 0.609524v0.609524c-0.203175 1.422222-0.406349 2.844444-0.406349 4.266667l1.015873 367.746031 31.492063 18.285715-1.015873-367.949207c0-1.422222 0.203175-2.844444 0.406349-4.266666 0-0.406349 0-0.812698 0.203175-1.015873 0.203175-0.812698 0.203175-1.219048 0.406349-2.031746 0-0.609524 0.203175-0.812698 0.406349-1.422223 0.203175-0.406349 0.203175-0.812698 0.40635-1.219047l0.609523-1.828572c0.203175-0.406349 0.203175-0.812698 0.40635-1.015873 0.203175-0.812698 0.406349-1.219048 0.812698-2.031746 0.203175-0.203175 0.203175-0.609524 0.406349-0.812698l1.015873-2.64127c0-0.203175 0.203175-0.203175 0.203175-0.406349 0.406349-0.812698 0.812698-1.625397 1.015873-2.438096 0.203175-0.203175 0.203175-0.609524 0.406349-0.812698 0.406349-0.812698 0.812698-1.422222 1.219048-2.234921 0-0.203175 0.203175-0.406349 0.203174-0.406349 0.609524-0.812698 1.015873-1.828571 1.625397-2.438095 0.203175-0.203175 0.406349-0.609524 0.609524-0.812698l1.219048-1.828572c0.203175-0.406349 0.609524-0.812698 0.812698-0.812698 0.406349-0.609524 0.812698-0.812698 1.015873-1.422222 0.406349-0.406349 0.812698-0.609524 0.812698-1.219048 0.406349-0.406349 0.812698-0.812698 0.812699-1.015873 0.609524-0.609524 1.015873-1.219048 1.625397-1.828572l0.812698-0.812698c1.015873-1.015873 2.438095-2.234921 3.453968-3.047619 0.203175-0.203175 0.406349-0.406349 0.812699-0.609524l3.860317-2.64127L798.47619 25.396825c1.015873-0.609524 2.234921-1.015873 3.04762-1.625396 0.406349-0.203175 0.812698-0.203175 0.812698-0.40635l1.828571-0.609523c0.406349-0.203175 0.812698-0.203175 1.015873-0.40635 0.406349 0 0.812698-0.203175 1.015873-0.203174 0.609524 0 0.812698-0.203175 1.219048-0.203175h2.64127c0.812698 0 1.219048 0.203175 1.828571 0.203175 0.203175 0 0.406349 0 0.406349 0.203174 0.609524 0.203175 0.812698 0.203175 1.422223 0.40635 0.203175 0 0.406349 0.203175 0.406349 0.203174 0.609524 0.203175 1.015873 0.609524 1.625397 0.812699l-31.288889-18.488889z m0 0" fill="#2A2ABC" p-id="18621"></path><path d="M776.939683 69.892063c6.501587-3.860317 11.784127-0.812698 11.784127 6.704762l0.812698 293.993651c0 7.314286-5.28254 16.457143-11.784127 20.114286l-425.853968 245.84127c-6.501587 3.860317-11.784127 0.812698-11.784127-6.704762l-0.812699-293.993651c0-7.314286 5.28254-16.457143 11.784127-20.114286l425.853969-245.84127z m0 0" fill="#2A2ABC" p-id="18622"></path><path d="M552.634921 538.819048c10.361905-6.095238 19.098413-1.219048 19.098412 10.971428 0 11.987302-8.533333 26.819048-18.895238 32.914286-10.565079 6.095238-19.098413 1.219048-19.098412-10.971429-0.203175-12.190476 8.533333-26.819048 18.895238-32.914285z m0 0" fill="#FFFFFF" p-id="18623"></path><path d="M493.714286 293.180952l-12.190476-3.453968c1.625397-0.406349 3.453968-0.812698 5.079365-1.015873l12.190476 3.453968c-1.625397 0.203175-3.453968 0.609524-5.079365 1.015873" fill="#D58FAA" p-id="18624"></path><path d="M498.793651 292.368254l-12.190476-3.453968c2.031746-0.203175 4.266667-0.203175 6.298412-0.203175l12.190476 3.453968c-2.031746-0.203175-4.063492-0.203175-6.298412 0.203175" fill="#D38DA8" p-id="18625"></path><path d="M505.295238 292.165079l-12.190476-3.453968c2.234921 0.203175 4.469841 0.406349 6.704762 1.015873l12.190476 3.453968c-2.234921-0.609524-4.469841-1.015873-6.704762-1.015873" fill="#D08CA6" p-id="18626"></path><path d="M512 292.977778l-12.190476-3.453968c1.015873 0.203175 1.828571 0.406349 2.844444 0.812698l12.190476 3.453968c-1.015873-0.203175-2.031746-0.609524-2.844444-0.812698" fill="#CE8AA4" p-id="18627"></path><path d="M493.714286 293.180952c13.206349-3.657143 27.834921 1.015873 39.619047 10.158731 119.466667 91.022222-3.250794 55.263492 14.222223 131.453968 11.784127 51.606349-1.828571 78.222222-18.285715 82.692063-5.485714 1.422222-11.174603 0.406349-16.457143-2.844444-34.946032-22.349206-57.904762-69.892063-57.904761-130.844445 0.406349-59.530159 18.08254-84.926984 38.806349-90.615873z m0 0" fill="#EFA1BF" p-id="18628"></path><path d="M518.907937 517.28254l-12.190477-3.453969c-2.031746-0.609524-4.063492-1.625397-5.892063-2.641269-33.320635-21.333333-55.669841-65.422222-57.701587-122.107937l12.190476 3.453968c2.031746 56.685714 24.380952 100.977778 57.701587 122.107937 1.828571 1.015873 3.860317 2.031746 5.892064 2.64127" fill="#C4849C" p-id="18629"></path><path d="M455.314286 392.330159l-12.190476-3.453969c0-2.844444-0.203175-5.688889-0.203175-8.736507 0-6.704762 0.203175-13.206349 0.812698-19.098413l12.190477 3.453968c-0.406349 5.892063-0.609524 12.190476-0.812699 19.098413 0 3.047619 0 5.892063 0.203175 8.736508" fill="#C7859E" p-id="18630"></path><path d="M455.92381 364.698413l-12.190477-3.453969c0.406349-5.892063 1.015873-11.377778 2.031746-16.457142l12.190477 3.453968c-1.015873 5.079365-1.625397 10.565079-2.031746 16.457143" fill="#C987A0" p-id="18631"></path><path d="M457.752381 348.24127l-12.190476-3.453968c0.609524-3.860317 1.422222-7.51746 2.23492-10.971429l12.190477 3.453968c-0.812698 3.453968-1.625397 7.111111-2.234921 10.971429" fill="#CC89A2" p-id="18632"></path><path d="M459.987302 337.269841l-12.190477-3.453968c0.812698-2.844444 1.422222-5.688889 2.438096-8.330159l12.190476 3.453969c-0.812698 2.64127-1.625397 5.485714-2.438095 8.330158" fill="#CE8AA4" p-id="18633"></path><path d="M462.425397 328.939683l-12.190476-3.453969c0.812698-2.438095 1.625397-4.673016 2.438095-6.704762l12.190476 3.453969c-0.812698 2.031746-1.625397 4.469841-2.438095 6.704762" fill="#D08CA6" p-id="18634"></path><path d="M464.863492 322.234921l-12.190476-3.453969c0.812698-2.031746 1.828571-4.063492 2.844444-5.892063l12.190477 3.453968c-1.015873 1.828571-1.828571 3.860317-2.844445 5.892064" fill="#D38DA8" p-id="18635"></path><path d="M467.707937 316.139683l-12.190477-3.453969c1.015873-2.031746 2.234921-3.860317 3.453969-5.688889l12.190476 3.453969c-1.219048 1.828571-2.438095 3.860317-3.453968 5.688889" fill="#D58FAA" p-id="18636"></path><path d="M471.161905 310.450794l-12.190476-3.453969c1.828571-2.844444 4.063492-5.485714 6.704761-7.923809l12.190477 3.453968c-2.64127 2.438095-4.87619 5.079365-6.704762 7.92381" fill="#D891AC" p-id="18637"></path><path d="M477.866667 302.526984l-12.190477-3.453968c1.625397-1.625397 3.657143-3.250794 5.688889-4.469841l12.190477 3.453968c-2.234921 1.219048-4.063492 2.64127-5.688889 4.469841" fill="#DA92AE" p-id="18638"></path><path d="M483.352381 297.853968l-12.190476-3.453968c2.844444-1.828571 5.892063-3.250794 9.142857-4.266667l12.190476 3.453969c-3.250794 1.015873-6.298413 2.438095-9.142857 4.266666" fill="#D891AC" p-id="18639"></path><path d="M492.495238 293.587302l-12.190476-3.453969c0.406349-0.203175 0.812698-0.203175 1.219048-0.406349l12.190476 3.453968c-0.406349 0.203175-0.812698 0.203175-1.219048 0.40635" fill="#D58FAA" p-id="18640"></path><path d="M583.92381 241.574603l-12.190477-3.453968c-3.453968-1.015873-6.095238-3.047619-7.111111-6.298413-0.609524-2.438095-1.828571-3.657143-3.453968-4.063492l12.190476 3.453968c1.625397 0.406349 2.844444 1.828571 3.453968 4.063492 1.015873 3.250794 3.657143 5.28254 7.111112 6.298413" fill="#C4849C" p-id="18641"></path><path d="M563.606349 216.380952l-12.190476-3.453968c5.079365-1.422222 10.15873-2.438095 15.44127-3.047619l12.190476 3.453968c-5.28254 0.609524-10.361905 1.625397-15.44127 3.047619" fill="#D58FAA" p-id="18642"></path><path d="M579.047619 213.536508l-12.190476-3.453968c5.28254-0.609524 10.565079-0.812698 15.847619-0.40635l12.190476 3.453969c-5.28254-0.406349-10.565079-0.203175-15.847619 0.406349" fill="#D38DA8" p-id="18643"></path><path d="M594.895238 212.926984l-12.190476-3.453968c1.015873 0 2.234921 0.203175 3.250794 0.203174 4.063492 0.406349 8.126984 0.812698 11.987301 1.625397l12.190476 3.453969c-4.063492-0.812698-7.92381-1.422222-11.987301-1.625397-1.219048 0-2.234921-0.203175-3.250794-0.203175" fill="#D08CA6" p-id="18644"></path><path d="M610.133333 214.95873l-12.190476-3.453968c1.015873 0.203175 1.828571 0.406349 2.64127 0.609524l12.190476 3.453968c-0.812698-0.203175-1.828571-0.406349-2.64127-0.609524" fill="#CE8AA4" p-id="18645"></path><path d="M538.819048 248.279365l-12.190477-3.453968c-0.609524-0.203175-0.812698-0.609524-0.812698-1.625397l12.190476 3.453968c0 1.015873 0.203175 1.625397 0.812699 1.625397" fill="#C4849C" p-id="18646"></path><path d="M538.006349 246.857143l-12.190476-3.657143 12.190476 3.453968v0.203175" fill="#C7859E" p-id="18647"></path><path d="M563.606349 216.380952c11.987302-3.250794 23.365079-4.266667 34.336508-3.250793 24.584127 2.234921 24.584127 7.314286 21.739683 15.847619-1.625397 4.87619-9.549206 9.346032-18.08254 11.784127-10.768254 2.844444-22.552381 2.234921-24.787302-5.485715-1.219048-4.063492-4.063492-4.87619-7.923809-3.860317-4.673016 1.219048-10.361905 5.079365-15.847619 8.939683-5.485714 3.657143-10.361905 7.314286-13.003175 8.126984-1.422222 0.406349-2.234921 0-2.23492-1.625397 0-1.422222-0.203175-23.568254 25.803174-30.476191z m0 0" fill="#EFA1BF" p-id="18648"></path><path d="M537.803175 246.653968l-12.190477-3.453968v-1.828571l12.190477 3.453968v1.828571" fill="#C7859E" p-id="18649"></path><path d="M538.006349 244.825397l-12.190476-3.453968c0-0.609524 0.203175-1.625397 0.406349-2.438096l12.190476 3.453969c-0.203175 0.812698-0.406349 1.828571-0.406349 2.438095" fill="#C987A0" p-id="18650"></path><path d="M538.209524 242.387302l-12.190476-3.453969c0.203175-0.812698 0.203175-1.625397 0.406349-2.438095l12.190476 3.453968c0 0.812698-0.203175 1.625397-0.406349 2.438096" fill="#CC89A2" p-id="18651"></path><path d="M538.819048 239.949206l-12.190477-3.453968c0.203175-0.812698 0.406349-1.625397 0.609524-2.234921l12.190476 3.453969c-0.203175 0.609524-0.406349 1.422222-0.609523 2.23492" fill="#CE8AA4" p-id="18652"></path><path d="M539.428571 237.511111l-12.190476-3.453968c0.203175-0.812698 0.609524-1.422222 0.812699-2.234921l12.190476 3.453968c-0.203175 0.812698-0.609524 1.625397-0.812699 2.234921" fill="#D08CA6" p-id="18653"></path><path d="M540.24127 235.27619l-12.190476-3.453968c0.406349-0.812698 0.609524-1.625397 1.219047-2.438095l12.190476 3.453968-1.219047 2.438095" fill="#D38DA8" p-id="18654"></path><path d="M541.460317 232.838095l-12.190476-3.453968c0.406349-1.015873 1.015873-1.828571 1.625397-2.844444l12.190476 3.453968c-0.609524 1.015873-1.219048 1.828571-1.625397 2.844444" fill="#D58FAA" p-id="18655"></path><path d="M543.085714 229.993651l-12.190476-3.453968c1.219048-1.625397 2.438095-3.250794 4.063492-4.673016l12.190476 3.453968c-1.625397 1.422222-2.844444 3.047619-4.063492 4.673016" fill="#D891AC" p-id="18656"></path><path d="M547.149206 225.320635l-12.190476-3.453968c1.422222-1.422222 3.047619-2.64127 4.673016-3.657143l12.190476 3.453968c-1.828571 1.015873-3.250794 2.234921-4.673016 3.657143" fill="#DA92AE" p-id="18657"></path><path d="M551.619048 221.663492l-12.190477-3.453968c3.047619-2.031746 6.501587-3.657143 10.158731-4.673016l12.190476 3.453968c-3.453968 1.015873-6.907937 2.64127-10.15873 4.673016" fill="#D891AC" p-id="18658"></path><path d="M561.777778 216.990476l-12.190476-3.453968 1.828571-0.609524 12.190476 3.453968-1.828571 0.609524" fill="#D58FAA" p-id="18659"></path><path d="M682.666667 394.768254l-12.190477-3.453968h0.203175l11.987302 3.453968" fill="#CECECE" p-id="18660"></path><path d="M682.666667 394.768254l-12.190477-3.453968h0.40635l12.190476 3.453968h-0.406349" fill="#D0D0D0" p-id="18661"></path><path d="M683.073016 394.768254l-12.190476-3.453968h0.406349l12.190476 3.453968h-0.406349" fill="#D3D3D3" p-id="18662"></path><path d="M683.68254 394.768254l-12.190477-3.453968H672.101587l12.190476 3.453968H683.68254" fill="#D5D5D5" p-id="18663"></path><path d="M684.088889 394.768254l-12.190476-3.453968c0.406349-0.203175 0.609524-0.203175 1.015873-0.406349l12.190476 3.453968c-0.203175 0-0.609524 0.203175-1.015873 0.406349" fill="#D8D8D8" p-id="18664"></path><path d="M685.104762 394.15873l-12.190476-3.453968c0.406349-0.203175 0.812698-0.609524 1.219047-1.015873l12.190477 3.453968c-0.406349 0.406349-0.812698 0.812698-1.219048 1.015873" fill="#DADADA" p-id="18665"></path><path d="M686.32381 393.346032l-12.190477-3.453969 0.40635-0.406349c0.609524-0.609524 1.015873-1.219048 1.422222-2.031746l12.190476 3.453969c-0.406349 0.609524-1.015873 1.422222-1.422222 2.031746l-0.406349 0.406349" fill="#D8D8D8" p-id="18666"></path><path d="M688.152381 391.111111l-12.190476-3.453968c0.406349-0.609524 0.812698-1.422222 1.219047-2.234921l0.203175-0.406349 12.190476 3.453968-0.203174 0.406349c-0.406349 0.812698-0.812698 1.422222-1.219048 2.234921" fill="#D5D5D5" p-id="18667"></path><path d="M689.574603 388.469841l-12.190476-3.453968c0.609524-1.015873 1.219048-2.234921 1.625397-3.657143l12.190476 3.453968c-0.406349 1.422222-1.015873 2.64127-1.625397 3.657143" fill="#D3D3D3" p-id="18668"></path><path d="M691.403175 384.812698l-12.190477-3.453968c0.609524-1.625397 1.422222-3.453968 2.031746-5.28254l12.190477 3.453969c-0.812698 2.031746-1.422222 3.860317-2.031746 5.282539" fill="#D0D0D0" p-id="18669"></path><path d="M693.231746 379.530159l-12.190476-3.453969c0.609524-1.625397 1.015873-3.250794 1.422222-4.87619 0.203175-1.015873 0.609524-1.828571 0.812698-2.844444l12.190477 3.453968c-0.203175 1.015873-0.406349 2.031746-0.812699 2.844444-0.406349 1.828571-0.812698 3.453968-1.422222 4.876191" fill="#CECECE" p-id="18670"></path><path d="M695.466667 371.809524l-12.190477-3.453968c0.812698-3.453968 1.625397-7.314286 2.234921-11.377778l12.190476 3.453968c-0.609524 4.063492-1.219048 7.92381-2.23492 11.377778" fill="#CCCCCC" p-id="18671"></path><path d="M697.904762 360.431746l-12.190476-3.453968c0.812698-5.079365 1.422222-10.361905 1.828571-15.847619l12.190476 3.453968c-0.406349 5.485714-1.015873 10.971429-1.828571 15.847619" fill="#C9C9C9" p-id="18672"></path><path d="M699.733333 344.584127l-12.190476-3.453968c0.406349-4.673016 0.609524-9.549206 0.609524-14.628572 0-2.234921 0-4.673016-0.203175-6.907936l12.190477 3.453968c0 2.234921 0.203175 4.673016 0.203174 6.907937 0 5.079365-0.203175 9.955556-0.609524 14.628571" fill="#C7C7C7" p-id="18673"></path><path d="M700.139683 323.047619l-12.190477-3.453968c-0.609524-16.660317-3.453968-34.133333-9.752381-49.777778-2.438095-6.095238-5.28254-9.955556-8.126984-12.190476-1.015873-0.812698-2.234921-1.422222-3.453968-1.828572l12.190476 3.453969c1.219048 0.406349 2.438095 1.015873 3.453968 1.828571 2.844444 2.234921 5.688889 6.095238 8.126985 12.190476 6.501587 15.644444 9.142857 33.11746 9.752381 49.777778M682.666667 394.768254l-12.190477-3.453968c-0.406349-0.203175-1.015873-0.406349-1.422222-0.812699-1.015873-0.812698-1.828571-2.234921-2.64127-4.469841l12.190477 3.453968c0.812698 2.234921 1.828571 3.657143 2.641269 4.469842 0.406349 0.406349 0.812698 0.609524 1.422223 0.812698" fill="#C4C4C4" p-id="18674"></path><path d="M682.666667 394.768254l-12.190477-3.453968c-0.406349-0.203175-1.015873-0.406349-1.422222-0.812699-1.015873-0.812698-1.828571-2.234921-2.64127-4.469841l12.190477 3.453968c0.812698 2.234921 1.828571 3.657143 2.641269 4.469842 0.406349 0.406349 0.812698 0.609524 1.422223 0.812698" fill="#C4C4C4" p-id="18675"></path><path d="M677.790476 390.298413l-12.190476-3.453969 0.609524-0.609523 12.190476 3.453968-0.609524 0.609524z m0 0" fill="#E1E1E1" p-id="18676"></path><path d="M677.790476 390.298413l-12.190476-3.453969 0.609524-0.609523 12.190476 3.453968-0.609524 0.609524z m0 0" fill="#E1E1E1" p-id="18677"></path><path d="M682.057143 396.8l-12.190476-3.453968c-0.609524-0.203175-1.219048-0.609524-1.625397-1.015873-1.219048-1.015873-2.234921-2.64127-3.047619-5.079365l12.190476 3.453968c1.015873 2.234921 2.031746 4.063492 3.047619 5.079365 0.406349 0.609524 0.812698 0.812698 1.625397 1.015873" fill="#C4C4C4" p-id="18678"></path><path d="M677.180952 390.907937l-12.190476-3.453969 0.609524-0.609524 12.190476 3.453969-0.609524 0.609524z m0 0" fill="#E1E1E1" p-id="18679"></path><path d="M678.603175 389.688889l-12.190477-3.453968c-4.87619-12.190476-10.565079-18.285714-16.457142-21.130159l-3.047619-1.219048 12.190476 3.453969c1.015873 0.406349 2.234921 0.812698 3.047619 1.219047 5.892063 2.844444 11.580952 8.939683 16.457143 21.130159" fill="#C4C4C4" p-id="18680"></path><path d="M678.603175 389.688889l-12.190477-3.453968c-4.87619-12.190476-10.565079-18.285714-16.457142-21.130159l-3.047619-1.219048 12.190476 3.453969c1.015873 0.406349 2.234921 0.812698 3.047619 1.219047 5.892063 2.844444 11.580952 8.939683 16.457143 21.130159" fill="#C4C4C4" p-id="18681"></path><path d="M678.603175 389.688889l-12.190477-3.453968c-4.87619-12.190476-10.565079-18.285714-16.457142-21.130159l-3.047619-1.219048 12.190476 3.453969c1.015873 0.406349 2.234921 0.812698 3.047619 1.219047 5.892063 2.844444 11.580952 8.939683 16.457143 21.130159" fill="#C4C4C4" p-id="18682"></path><path d="M678.603175 389.688889l-12.190477-3.453968c-4.87619-12.190476-10.565079-18.285714-16.457142-21.130159l-3.047619-1.219048 12.190476 3.453969c1.015873 0.406349 2.234921 0.812698 3.047619 1.219047 5.892063 2.844444 11.580952 8.939683 16.457143 21.130159" fill="#C4C4C4" p-id="18683"></path><path d="M678.603175 389.688889l-12.190477-3.453968c-4.87619-12.190476-10.565079-18.285714-16.457142-21.130159l-3.047619-1.219048 12.190476 3.453969c1.015873 0.406349 2.234921 0.812698 3.047619 1.219047 5.892063 2.844444 11.580952 8.939683 16.457143 21.130159" fill="#C4C4C4" p-id="18684"></path><path d="M678.603175 389.688889l-12.190477-3.453968c-4.87619-12.190476-10.565079-18.285714-16.457142-21.130159l-3.047619-1.219048 12.190476 3.453969c1.015873 0.406349 2.234921 0.812698 3.047619 1.219047 5.892063 2.844444 11.580952 8.939683 16.457143 21.130159" fill="#C4C4C4" p-id="18685"></path><path d="M677.180952 390.907937l-12.190476-3.453969c-5.485714-13.612698-11.784127-19.301587-18.285714-21.333333l-0.609524-0.203175 12.190476 3.453969 0.609524 0.203174c6.298413 2.031746 12.8 7.720635 18.285714 21.333334" fill="#C4C4C4" p-id="18686"></path><path d="M673.11746 257.219048l-12.190476-3.453969c0.609524-0.203175 1.219048-0.203175 2.031746-0.406349l12.190476 3.453968c-0.609524 0.203175-1.422222 0.203175-2.031746 0.40635" fill="#D5D5D5" p-id="18687"></path><path d="M675.149206 256.812698l-12.190476-3.453968h2.031746l12.190476 3.453968h-2.031746" fill="#D3D3D3" p-id="18688"></path><path d="M676.977778 256.812698l-12.190476-3.453968c0.609524 0 1.219048 0.203175 1.828571 0.203175l12.190476 3.453968c-0.609524-0.203175-1.219048-0.203175-1.828571-0.203175" fill="#D0D0D0" p-id="18689"></path><path d="M678.806349 257.015873l-12.190476-3.453968c0.203175 0 0.406349 0.203175 0.609524 0.203174l12.190476 3.453969c-0.203175 0-0.406349-0.203175-0.609524-0.203175M631.466667 369.777778l-12.190477-3.657143 0.40635 0.203175 11.987301 3.453968h-0.203174" fill="#CECECE" p-id="18690"></path><path d="M631.669841 369.777778l-12.190476-3.453968c0.406349 0 0.609524 0.203175 1.015873 0.203174l12.190476 3.453968c-0.203175 0-0.609524-0.203175-1.015873-0.203174" fill="#D0D0D0" p-id="18691"></path><path d="M632.888889 369.980952l-12.190476-3.453968h1.828571l12.190476 3.453968h-1.828571" fill="#D3D3D3" p-id="18692"></path><path d="M634.71746 369.777778l-12.190476-3.453968c1.219048-0.203175 2.234921-0.406349 3.453968-0.609524 3.453968-0.812698 7.314286-2.031746 11.580953-2.64127l12.190476 3.453968c-4.266667 0.406349-8.330159 1.828571-11.580952 2.64127-1.219048 0.406349-2.438095 0.609524-3.453969 0.609524" fill="#D5D5D5" p-id="18693"></path><path d="M649.549206 366.730159l-12.190476-3.453969c1.625397-0.203175 3.047619-0.203175 4.673016-0.203174l12.190476 3.453968c-1.625397-0.203175-3.047619 0-4.673016 0.203175" fill="#D3D3D3" p-id="18694"></path><path d="M654.222222 366.526984l-12.190476-3.453968c1.219048 0 2.438095 0.203175 3.453968 0.406349l12.190476 3.453968c-1.015873-0.203175-2.234921-0.406349-3.453968-0.406349" fill="#D0D0D0" p-id="18695"></path><path d="M657.67619 366.933333l-12.190476-3.453968c0.406349 0 0.812698 0.203175 1.219048 0.406349l12.190476 3.453969c-0.203175-0.203175-0.812698-0.203175-1.219048-0.40635" fill="#CECECE" p-id="18696"></path><path d="M631.466667 369.777778l-12.190477-3.453968c-0.406349 0-0.609524-0.203175-1.015873-0.40635-0.812698-0.609524-1.422222-1.422222-2.031746-2.64127-0.406349-1.422222-0.609524-3.047619-0.609523-4.673015l12.190476 3.453968c0 1.625397 0.203175 3.047619 0.609524 4.673016 0.406349 1.422222 1.219048 2.234921 2.031746 2.64127 0.406349 0 0.609524 0.203175 1.015873 0.406349" fill="#C4C4C4" p-id="18697"></path><path d="M631.466667 369.777778l-12.190477-3.453968c-0.406349 0-0.609524-0.203175-1.015873-0.40635-0.812698-0.609524-1.422222-1.422222-2.031746-2.64127-0.406349-1.422222-0.609524-3.047619-0.609523-4.673015l12.190476 3.453968c0 1.625397 0.203175 3.047619 0.609524 4.673016 0.406349 1.422222 1.219048 2.234921 2.031746 2.64127 0.406349 0 0.609524 0.203175 1.015873 0.406349" fill="#C4C4C4" p-id="18698"></path><path d="M631.466667 369.777778l-12.190477-3.453968c-0.406349 0-0.609524-0.203175-1.015873-0.40635-0.812698-0.609524-1.422222-1.422222-2.031746-2.64127-0.406349-1.422222-0.609524-3.047619-0.609523-4.673015l12.190476 3.453968c0 1.625397 0.203175 3.047619 0.609524 4.673016 0.406349 1.422222 1.219048 2.234921 2.031746 2.64127 0.406349 0 0.609524 0.203175 1.015873 0.406349" fill="#C4C4C4" p-id="18699"></path><path d="M627.809524 361.853968l-12.190476-3.453968v-1.219048c0-1.219048 0-2.438095 0.203174-3.860317l12.190476 3.453968c-0.203175 1.422222-0.203175 2.64127-0.203174 3.860318v1.219047" fill="#C7C7C7" p-id="18700"></path><path d="M627.809524 361.853968l-12.190476-3.453968v-1.219048c0-1.219048 0-2.438095 0.203174-3.860317l12.190476 3.453968c-0.203175 1.422222-0.203175 2.64127-0.203174 3.860318v1.219047" fill="#C7C7C7" p-id="18701"></path><path d="M628.012698 356.774603l-12.190476-3.453968c0.203175-2.64127 0.609524-5.892063 1.219048-9.752381l12.190476 3.453968c-0.609524 3.860317-1.015873 7.111111-1.219048 9.752381" fill="#C9C9C9" p-id="18702"></path><path d="M629.231746 347.225397l-12.190476-3.453968c1.015873-6.704762 2.844444-15.034921 5.485714-25.6l0.203175-0.609524 12.190476 3.453968-0.203175 0.609524c-2.64127 10.565079-4.469841 18.895238-5.485714 25.6" fill="#CCCCCC" p-id="18703"></path><path d="M637.35873 312.07619l-12.190476-3.453968c1.219048-3.657143 2.64127-7.51746 4.266667-11.377778l12.190476 3.453969c-1.625397 3.860317-3.047619 7.720635-4.266667 11.377777" fill="#D0D0D0" p-id="18704"></path><path d="M641.625397 300.698413l-12.190476-3.453969c1.828571-4.266667 3.657143-8.533333 5.892063-12.596825l12.190476 3.453968c-2.031746 4.063492-4.063492 8.330159-5.892063 12.596826" fill="#D3D3D3" p-id="18705"></path><path d="M647.51746 288.101587l-12.190476-3.453968c0.812698-1.625397 1.828571-3.453968 2.844445-5.079365 1.219048-2.234921 2.64127-4.266667 3.860317-6.298413l12.190476 3.453969c-1.422222 2.031746-2.64127 4.063492-3.860317 6.298412-1.015873 1.625397-1.828571 3.453968-2.844445 5.079365" fill="#D5D5D5" p-id="18706"></path><path d="M629.231746 347.225397l-12.190476-3.453968c1.015873-6.704762 2.844444-15.034921 5.485714-25.6l0.203175-0.609524 12.190476 3.453968-0.203175 0.609524c-2.64127 10.565079-4.469841 18.895238-5.485714 25.6" fill="#CCCCCC" p-id="18707"></path><path d="M634.71746 321.015873l-12.190476-3.453968c0.609524-2.844444 1.625397-5.892063 2.64127-8.939683l12.190476 3.453968c-1.015873 3.047619-1.828571 6.095238-2.64127 8.939683" fill="#CECECE" p-id="18708"></path><path d="M637.35873 312.07619l-12.190476-3.453968c1.219048-3.657143 2.64127-7.51746 4.266667-11.377778l12.190476 3.453969c-1.625397 3.860317-3.047619 7.720635-4.266667 11.377777" fill="#D0D0D0" p-id="18709"></path><path d="M673.11746 259.250794c3.250794-1.015873 6.704762-0.203175 9.142857 1.828571 2.844444 2.234921 5.688889 6.095238 8.126985 12.190476 7.111111 17.879365 9.955556 37.993651 9.752381 56.888889 0 17.066667-2.234921 32.914286-5.485715 44.698413-1.625397 5.892063-3.453968 10.768254-5.282539 14.222222-0.812698 1.422222-1.625397 2.844444-2.844445 4.063492-0.812698 1.015873-1.828571 1.625397-2.64127 1.828572-1.015873 0.203175-1.828571 0-2.844444-0.812699-1.015873-0.812698-1.828571-2.234921-2.64127-4.469841l-0.609524 0.609524 0.609524-0.609524c-4.87619-12.190476-10.565079-18.285714-16.457143-21.130159-8.736508-4.266667-17.67619-0.812698-24.177778 0.812699-3.250794 0.812698-5.892063 1.015873-7.51746 0-0.812698-0.609524-1.422222-1.422222-2.031746-2.64127-0.406349-1.422222-0.812698-3.250794-0.812698-5.892064 0-7.111111 2.031746-19.301587 6.907936-39.212698 2.844444-11.784127 8.736508-26.412698 15.644445-38.4 7.314286-12.393651 15.644444-21.942857 23.161904-23.974603z m0 0" fill="#EFEFEF" p-id="18710"></path><path d="M630.857143 371.809524l-12.190476-3.453968c-1.422222-0.406349-2.438095-1.219048-3.250794-2.438096-0.812698-1.625397-1.422222-3.860317-1.422222-6.907936l12.190476 3.453968c0.203175 3.047619 0.609524 5.28254 1.422222 6.704762 0.812698 1.422222 1.828571 2.234921 3.250794 2.64127" fill="#C4C4C4" p-id="18711"></path><path d="M626.184127 362.463492l-12.190476-3.453968v-1.422222c0-1.219048 0-2.64127 0.203174-4.063492l12.190477 3.453968c-0.203175 1.422222-0.203175 2.844444-0.203175 4.063492v1.422222" fill="#C7C7C7" p-id="18712"></path><path d="M626.387302 356.977778l-12.190477-3.453968c0.203175-2.844444 0.609524-6.095238 1.219048-9.955556l12.190476 3.453968c-0.609524 3.860317-1.015873 7.111111-1.219047 9.955556" fill="#C9C9C9" p-id="18713"></path><path d="M627.606349 347.022222l-12.190476-3.453968c1.219048-6.704762 2.844444-15.238095 5.485714-25.803175l0.203175-0.609523 12.190476 3.453968-0.203175 0.609524c-2.438095 10.768254-4.266667 19.098413-5.485714 25.803174" fill="#CCCCCC" p-id="18714"></path><path d="M633.295238 320.609524l-12.190476-3.453968c0.812698-2.844444 1.625397-5.892063 2.64127-9.142858l12.190476 3.453969c-1.015873 3.250794-2.031746 6.298413-2.64127 9.142857" fill="#CECECE" p-id="18715"></path><path d="M635.936508 311.466667l-12.190476-3.453969c1.219048-3.860317 2.64127-7.720635 4.469841-11.784127l12.190476 3.453969c-1.828571 4.063492-3.250794 8.126984-4.469841 11.784127" fill="#D0D0D0" p-id="18716"></path><path d="M640.406349 299.885714l-12.190476-3.453968c1.828571-4.266667 3.860317-8.533333 5.892064-12.8l12.190476 3.453968c-2.234921 4.266667-4.266667 8.533333-5.892064 12.8" fill="#D3D3D3" p-id="18717"></path><path d="M646.298413 287.085714l-12.190476-3.453968c1.015873-1.828571 1.828571-3.453968 2.844444-5.28254 1.422222-2.234921 2.64127-4.469841 4.063492-6.501587l12.190476 3.453968c-1.422222 2.031746-2.844444 4.266667-4.063492 6.501588-1.015873 1.828571-1.828571 3.657143-2.844444 5.282539" fill="#D5D5D5" p-id="18718"></path><path d="M653.206349 275.504762l-12.190476-3.453968c2.844444-4.266667 5.892063-8.126984 8.939683-11.174604l12.190476 3.453969c-3.047619 3.047619-5.892063 6.704762-8.939683 11.174603" fill="#D8D8D8" p-id="18719"></path><path d="M662.349206 264.126984l-12.190476-3.453968c1.625397-1.625397 3.453968-3.047619 5.28254-4.469841l12.190476 3.453968c-1.828571 1.422222-3.657143 2.844444-5.28254 4.469841" fill="#DADADA" p-id="18720"></path><path d="M667.631746 259.860317l-12.190476-3.453968c1.625397-1.015873 3.250794-1.828571 5.079365-2.438095l12.190476 3.453968c-1.828571 0.609524-3.453968 1.422222-5.079365 2.438095" fill="#D8D8D8" p-id="18721"></path><path d="M672.711111 257.422222l-12.190476-3.453968 0.609524-0.203175 11.987301 3.453969-0.406349 0.203174" fill="#D5D5D5" p-id="18722"></path><path d="M673.11746 257.219048c3.453968-1.015873 7.314286-0.203175 10.15873 1.828571 3.250794 2.438095 6.095238 6.501587 8.533334 12.8 7.314286 18.08254 9.955556 38.603175 9.955555 57.701587 0 22.552381-4.063492 43.27619-8.939682 55.669842-1.625397 4.063492-3.453968 7.314286-5.485714 9.346031-1.015873 1.219048-2.234921 2.031746-3.453969 2.234921-1.422222 0.406349-2.844444 0-3.860317-1.015873-1.219048-1.015873-2.234921-2.64127-3.047619-5.079365l0.609524-0.609524 0.609523-0.609524c0.812698 2.234921 1.828571 3.657143 2.64127 4.469842 1.015873 0.812698 1.828571 1.015873 2.844445 0.812698 0.812698-0.203175 1.625397-0.812698 2.64127-1.828571 1.015873-1.219048 2.031746-2.64127 2.844444-4.063493 1.828571-3.453968 3.657143-8.330159 5.28254-14.222222 3.250794-11.784127 5.485714-27.631746 5.485714-44.698412 0-18.895238-2.64127-39.009524-9.752381-56.888889-2.438095-6.095238-5.28254-9.955556-8.126984-12.190477-2.64127-2.031746-6.095238-2.64127-9.142857-1.828571-7.51746 2.031746-15.847619 11.580952-22.95873 23.771429-7.111111 12.190476-12.8 26.819048-15.644445 38.603174-4.87619 19.911111-6.907937 32.101587-6.907936 39.212699 0 2.64127 0.203175 4.469841 0.812698 5.892063 0.406349 1.422222 1.219048 2.234921 2.031746 2.64127 1.625397 1.015873 4.266667 0.812698 7.51746 0 6.501587-1.625397 15.44127-4.87619 24.177778-0.812698 5.892063 2.844444 11.580952 8.939683 16.457143 21.130158l-0.609524 0.609524-0.609524 0.609524c-5.485714-13.612698-11.784127-19.301587-18.285714-21.333333-6.298413-2.031746-12.8-0.406349-18.08254 1.015873-3.657143 1.015873-6.907937 1.828571-9.346031 1.219047-1.625397-0.203175-2.844444-1.219048-3.657143-2.64127-1.015873-1.828571-1.422222-4.469841-1.422222-8.126984 0-7.51746 2.031746-19.911111 6.907936-39.822222 2.844444-11.987302 8.736508-26.819048 16.050794-39.212698 7.111111-12.190476 15.44127-22.349206 23.771428-24.584127z m0 0" fill="#EFEFEF" p-id="18723"></path><path d="M894.984127 555.27619l-25.396825-14.628571c0 1.625397 0.406349 2.844444 0.812698 3.860318 0.609524 1.015873 1.219048 1.828571 2.031746 2.438095l25.396825 14.628571c-1.828571-1.015873-2.844444-3.250794-2.844444-6.298413z m69.688889-168.838095c-0.203175-0.203175-0.406349-0.203175-0.609524-0.406349-0.203175 0-0.406349-0.203175-0.609524-0.203175H961.015873c-0.406349 0-0.609524 0.203175-0.812698 0.203175-0.203175 0-0.203175 0.203175-0.40635 0.203175s-0.203175 0-0.406349 0.203174c-0.203175 0-0.406349 0.203175-0.609524 0.203175-0.609524 0.203175-0.812698 0.406349-1.422222 0.609524l-78.628571 45.307936-1.828572 1.219048-0.609524 0.609524c-0.406349 0.203175-0.609524 0.609524-0.812698 0.609523l-1.015873 1.015873c-0.406349 0.406349-0.609524 0.609524-0.812698 1.015873-0.203175 0.203175-0.203175 0.406349-0.40635 0.40635l-0.203174 0.203174c0 0.203175-0.203175 0.203175-0.203175 0.406349-0.203175 0.406349-0.406349 0.609524-0.609524 0.812699-0.203175 0.406349-0.406349 0.609524-0.609523 0.812698v0.203175c-0.203175 0.203175-0.203175 0.609524-0.40635 0.609524-0.203175 0.406349-0.406349 0.609524-0.609523 0.812698-0.203175 0.406349-0.203175 0.609524-0.40635 0.812699-0.203175 0.406349-0.203175 0.609524-0.406349 0.812698-0.203175 0.406349-0.203175 0.609524-0.406349 0.812698 0 0.203175-0.203175 0.406349-0.203175 0.609524v0.203175c0 0.203175 0 0.203175-0.203174 0.406349-0.203175 0.406349-0.203175 0.609524-0.406349 1.219048 0 0.203175 0 0.609524-0.203175 0.609523v0.609524c0 0.609524-0.203175 1.422222-0.203175 1.828572l0.40635 90.819047L893.968254 554.666667l-0.406349-90.819048c0-0.609524 0-1.625397 0.203174-2.234921v-0.406349c0.203175-0.609524 0.406349-1.422222 0.609524-2.23492v0.203174c0.203175-0.812698 0.609524-1.625397 0.812699-2.438095 0.406349-0.812698 0.609524-1.625397 1.219047-2.438095 0.406349-0.609524 0.812698-1.422222 1.422222-2.031746l0.203175-0.203175c0.609524-0.609524 0.812698-1.219048 1.422222-1.625397l2.031746-2.031746c0.609524-0.609524 1.219048-0.812698 1.828572-1.219047l78.628571-45.307937c0.609524-0.406349 1.219048-0.609524 1.828572-0.812698 0.203175 0 0.203175 0 0.406349-0.203175 0.609524-0.203175 1.015873-0.406349 1.625397-0.406349h1.625396c0.609524 0.203175 1.015873 0.406349 1.422223 0.609524l-24.177778-14.628572z m0 0" fill="#C68620" p-id="18724"></path><path d="M982.95873 401.879365c5.485714-3.047619 9.752381-0.609524 9.955556 5.688889l0.406349 90.819048c0 6.095238-4.469841 13.815873-9.752381 17.066666L904.939683 560.761905c-5.485714 3.047619-9.955556 0.609524-9.955556-5.688889l-0.406349-90.819048c0-6.095238 4.469841-13.815873 9.752381-16.863492l78.628571-45.511111z m0 0" fill="#FFCD2E" p-id="18725"></path><path d="M749.104762 628.419048l-25.396825-14.628572c0 3.047619 1.219048 5.28254 2.844444 6.298413l25.396825 14.628571c-1.625397-1.015873-2.844444-3.250794-2.844444-6.298412z m69.892063-168.838096c-0.203175-0.203175-0.406349-0.203175-0.609523-0.406349-0.203175 0-0.406349-0.203175-0.609524-0.203174h-2.438095c-0.406349 0-0.609524 0.203175-0.812699 0.203174-0.203175 0-0.203175 0.203175-0.406349 0.203175s-0.203175 0-0.406349 0.203174c-0.203175 0-0.406349 0.203175-0.609524 0.203175-0.609524 0.203175-0.812698 0.406349-1.422222 0.609524l-78.628572 45.307936-1.828571 1.219048-0.609524 0.609524c-0.406349 0.203175-0.609524 0.609524-0.812698 0.609524l-1.015873 1.015873c-0.406349 0.406349-0.609524 0.609524-0.812699 1.015873-0.203175 0.203175-0.203175 0.406349-0.406349 0.406349l-0.203175 0.203174c0 0.203175-0.203175 0.203175-0.203174 0.40635-0.203175 0.406349-0.406349 0.609524-0.609524 0.812698-0.203175 0.406349-0.406349 0.609524-0.609524 0.812698v0.203175c-0.203175 0.203175-0.203175 0.609524-0.406349 0.609524-0.203175 0.406349-0.406349 0.609524-0.609524 0.812698-0.203175 0.406349-0.203175 0.609524-0.406349 0.812699-0.203175 0.406349-0.203175 0.609524-0.406349 0.812698-0.203175 0.406349-0.203175 0.609524-0.406349 0.812698 0 0.203175-0.203175 0.406349-0.203175 0.609524v0.203175c0 0.203175 0 0.203175-0.203175 0.406349-0.203175 0.406349-0.203175 0.609524-0.406349 1.219048 0 0.203175 0 0.609524-0.203175 0.609524v0.609523c0 0.609524-0.203175 1.422222-0.203174 1.828572l0.406349 90.819047 25.396825 14.628572-0.406349-90.819048c0-0.609524 0-1.625397 0.203175-2.23492v-0.40635c0.203175-0.609524 0.406349-1.422222 0.609524-2.23492v0.203174c0.203175-0.812698 0.609524-1.625397 0.812698-2.438095 0.406349-0.812698 0.609524-1.625397 1.219048-2.234921 0.406349-0.609524 0.812698-1.422222 1.422222-2.031746l0.203175-0.203174c0.609524-0.609524 0.812698-1.219048 1.422222-1.625397l2.031746-2.031746c0.609524-0.609524 1.219048-0.812698 1.828571-1.219048l78.628572-45.307936c0.609524-0.406349 1.219048-0.609524 1.828571-0.812699 0.203175 0 0.203175 0 0.406349-0.203174 0.609524-0.203175 1.015873-0.406349 1.625397-0.406349h1.625397c0.609524 0.203175 1.015873 0.406349 1.422222 0.609523l-24.177778-14.831746z m0 0" fill="#C68620" p-id="18726"></path><path d="M837.28254 475.022222c5.485714-3.047619 9.955556-0.609524 9.955555 5.688889l0.406349 90.819048c0 6.298413-4.469841 13.815873-9.752381 17.066666L759.263492 633.904762c-5.28254 3.047619-9.752381 0.609524-9.955555-5.688889l-0.40635-90.819048c0-6.095238 4.469841-13.815873 9.752381-16.863492l78.628572-45.511111z m0 0" fill="#FFCD2E" p-id="18727"></path><path d="M844.393651 651.377778l-25.396826-14.628572c-0.203175-0.203175-0.406349-0.203175-0.609523-0.203174-0.203175 0-0.406349-0.203175-0.609524-0.203175h-2.438095c-0.406349 0-0.609524 0.203175-0.812699 0.203175-0.203175 0-0.203175 0-0.406349 0.203174-0.203175 0-0.203175 0-0.406349 0.203175-0.203175 0-0.406349 0.203175-0.609524 0.203175-0.609524 0.203175-0.812698 0.406349-1.422222 0.609523l-78.628572 45.307937-1.828571 1.219047-0.609524 0.609524c-0.406349 0.203175-0.609524 0.609524-0.812698 0.609524-0.203175 0.203175-0.406349 0.406349-0.40635 0.609524v0.609524c-0.406349 0.406349-0.609524 0.609524-0.812698 1.015873-0.203175 0.203175-0.203175 0.406349-0.406349 0.406349l-0.203175 0.203175c0 0.203175-0.203175 0.203175-0.203174 0.406349-0.203175 0.406349-0.406349 0.609524-0.609524 0.812698-0.203175 0.406349-0.406349 0.609524-0.609524 0.812699v0.406349c-0.203175 0.203175-0.203175 0.406349-0.406349 0.609524-0.203175 0.406349-0.406349 0.609524-0.609524 0.812698-0.203175 0.406349-0.406349 0.609524-0.406349 0.812698-0.203175 0.406349-0.203175 0.609524-0.406349 0.812699-0.203175 0.406349-0.203175 0.609524-0.40635 1.015873 0 0.203175-0.203175 0.406349-0.203174 0.609524v0.203174c0 0.203175 0 0.203175-0.203175 0.406349-0.203175 0.406349-0.203175 0.609524-0.406349 1.219048 0 0.203175 0 0.609524-0.203175 0.609524v0.609524c0 0.609524-0.203175 1.422222-0.203174 1.828571l0.406349 90.819048 9.346032 5.485714-9.346032-5.485714c0 3.047619 1.219048 5.28254 2.844444 6.298412l25.396826 14.628572c-1.625397-1.015873-2.844444-3.250794-2.844445-6.298413l-0.406349-90.819047c0-0.609524 0-1.625397 0.203175-2.234921v-0.406349c0.203175-0.609524 0.406349-1.422222 0.609524-2.234921v-0.203175c0.203175-0.812698 0.609524-1.625397 0.812698-2.438095 0.406349-0.812698 0.609524-1.625397 1.219048-2.23492v-0.203175c0.406349-0.609524 0.812698-1.422222 1.422222-2.031746l0.203174-0.203175c0.609524-0.609524 0.812698-1.219048 1.422223-1.625396l2.031746-2.031746c0.609524-0.609524 1.219048-0.812698 1.828571-1.219048l78.628571-45.307937c0.609524-0.406349 1.219048-0.609524 1.828572-0.812698 0.203175 0 0.203175 0 0.406349-0.203175 0.609524-0.203175 1.015873-0.406349 1.625397-0.406349h0.203175c0.609524 0 1.015873 0 1.625396 0.203175 1.015873-0.406349 1.219048-0.203175 1.828572 0z m0 0" fill="#C68620" p-id="18728"></path><path d="M837.28254 652.190476c5.485714-3.047619 9.955556-0.609524 9.955555 5.688889l0.406349 90.819048c0 6.298413-4.469841 13.815873-9.752381 17.066666l-78.628571 45.307937c-5.28254 3.047619-9.752381 0.609524-9.955555-5.688889l-0.40635-90.819048c0-6.095238 4.469841-13.815873 9.752381-17.066666l78.628572-45.307937z m0 0" fill="#FFCD2E" p-id="18729"></path><path d="M964.673016 563.606349c-0.203175-0.203175-0.406349-0.203175-0.609524-0.406349-0.203175 0-0.406349-0.203175-0.609524-0.203175H961.015873c-0.406349 0-0.609524 0.203175-0.812698 0.203175-0.203175 0-0.203175 0.203175-0.40635 0.203175s-0.203175 0-0.406349 0.203174c-0.203175 0-0.406349 0.203175-0.609524 0.203175-0.609524 0.203175-0.812698 0.406349-1.422222 0.609524l-78.628571 45.307936-1.828572 1.219048-0.609524 0.609524c-0.406349 0.203175-0.609524 0.609524-0.812698 0.609523-0.203175 0.203175-0.406349 0.406349-0.406349 0.609524l-0.406349 0.406349-0.40635 0.40635c-0.406349 0.406349-0.609524 0.609524-0.812698 1.015873-0.203175 0.203175-0.203175 0.406349-0.406349 0.406349l-0.203175 0.203174c0 0.203175-0.203175 0.203175-0.203174 0.40635-0.203175 0.406349-0.406349 0.609524-0.609524 0.812698-0.203175 0.406349-0.406349 0.609524-0.609524 0.812698v0.40635c-0.203175 0.203175-0.203175 0.406349-0.406349 0.609523-0.203175 0.406349-0.406349 0.609524-0.609524 0.812699-0.203175 0.406349-0.203175 0.609524-0.406349 0.812698-0.203175 0.406349-0.203175 0.609524-0.406349 0.812699-0.203175 0.406349-0.203175 0.609524-0.40635 0.812698 0 0.203175-0.203175 0.406349-0.203174 0.609524v0.203175c0 0.203175 0 0.203175-0.203175 0.406349-0.203175 0.406349-0.203175 0.609524-0.406349 1.219047 0 0.203175 0 0.609524-0.203175 0.609524v0.609524c0 0.609524-0.203175 1.422222-0.203174 1.828571l0.406349 90.819048 9.346032 5.485714-9.346032-5.485714c0 3.047619 1.219048 5.28254 2.844444 6.298413l25.396826 14.628571c-1.625397-1.015873-2.844444-3.250794-2.844445-6.298413l-0.406349-90.819047c0-0.609524 0-1.625397 0.203175-2.234921v-0.406349c0.203175-0.609524 0.406349-1.422222 0.609524-2.234921v-0.203174c0.203175-0.812698 0.609524-1.625397 0.812698-2.438095 0.406349-0.812698 0.609524-1.625397 1.219048-2.234921 0.406349-0.609524 0.812698-1.422222 1.422222-2.031746l0.203174-0.203175c0.609524-0.609524 0.812698-1.219048 1.422223-1.625397l0.406349-0.406349 1.219047-1.219047 0.609524-0.609524c0.609524-0.609524 1.219048-0.812698 1.828572-1.219048l78.628571-45.307936c0.609524-0.406349 1.219048-0.609524 1.625397-0.812699 0.203175 0 0.203175 0 0.406349-0.203174 0.609524-0.203175 1.015873-0.406349 1.625397-0.40635h0.203175c0.609524 0 1.015873 0 1.625396 0.203175 0.609524 0.203175 1.015873 0.406349 1.422223 0.609524l-24.177778-15.034921z m0 0" fill="#C68620" p-id="18730"></path><path d="M982.95873 579.047619c5.485714-3.047619 9.752381-0.609524 9.955556 5.688889l0.406349 90.819048c0 6.298413-4.469841 13.815873-9.752381 17.066666l-78.628571 45.307937c-5.485714 3.047619-9.955556 0.609524-9.955556-5.688889l-0.406349-90.819048c0-6.095238 4.469841-13.815873 9.752381-17.066666l78.628571-45.307937z m0 0" fill="#FFCD2E" p-id="18731"></path><path d="M792.787302 516.469841l0.203174 57.701588-7.111111 4.063492-0.203175-48.558731-9.75238 15.644445v-9.346032l9.75238-15.238095 7.111112-4.266667z m0 0" fill="#C68620" p-id="18732"></path><path d="M806.4 591.44127l-18.488889-10.768254-0.203174-48.55873 18.488888 10.768254 0.203175 48.55873z m-0.203175-57.701587l-18.488888-10.56508 7.111111-4.063492 18.488889 10.565079-7.111112 4.063493z m0 0" fill="#E8CFAC" p-id="18733"></path><path d="M796.444444 549.180952l-18.488888-10.565079 9.752381-15.44127 18.488888 10.56508-9.752381 15.441269z m0 0" fill="#E8CFAC" p-id="18734"></path><path d="M796.444444 558.526984l-18.488888-10.768254v-9.142857l18.488888 10.565079v9.346032z m0 0" fill="#E8CFAC" p-id="18735"></path><path d="M813.307937 529.67619l0.203174 57.701588-7.111111 4.063492-0.203175-48.55873-9.752381 15.644444v-9.346032l9.752381-15.441269 7.111112-4.063493z m0 0" fill="#FFFFFF" p-id="18736"></path><path d="M937.447619 445.155556c8.533333-4.87619 14.628571-2.234921 14.628571 7.923809 0 5.079365-1.625397 9.142857-4.673015 15.238095l-15.644445 31.085715 20.31746-11.784127v7.314285l-29.053968 16.863492v-7.314285l19.098413-38.196826c1.828571-3.860317 2.64127-6.298413 2.64127-9.346031 0-5.079365-2.64127-7.111111-7.314286-4.469842-3.860317 2.234921-7.314286 6.704762-7.314286 13.206349l-7.111111 4.063493c-0.203175-9.752381 5.688889-19.707937 14.425397-24.584127z m0 0" fill="#C68620" p-id="18737"></path><path d="M954.311111 510.984127l-18.285714-10.768254 20.31746-11.784127 18.488889 10.768254-20.520635 11.784127z m-8.533333 12.393651l-18.488889-10.768254v-7.314286l18.285714 10.768254 0.203175 7.314286z m0 0" fill="#E8CFAC" p-id="18738"></path><path d="M967.51746 470.755556c0-0.609524 0.203175-1.422222 0.203175-1.828572 0-2.64127-0.609524-4.469841-2.031746-5.28254l-18.488889-10.768254c1.422222 0.812698 2.031746 2.64127 2.031746 5.28254 0 0.609524 0 1.422222-0.203175 2.031746v0.203175c-0.203175 0.609524-0.203175 1.422222-0.406349 1.828571v0.203175c-0.203175 0.609524-0.609524 1.422222-0.609524 2.031746 0 0 0 0.203175-0.203174 0.203174-0.406349 0.812698-0.609524 1.625397-1.219048 2.64127l-19.098413 38.196826 18.488889 10.768254 19.098413-38.196826c0.203175-0.406349 0.406349-0.609524 0.406349-0.812698 0.203175-0.609524 0.609524-1.015873 0.609524-1.422222 0-0.203175 0.203175-0.203175 0.203175-0.40635 0 0 0-0.203175 0.203174-0.203174 0-0.203175 0.203175-0.406349 0.203175-0.609524 0.203175-0.406349 0.203175-0.609524 0.406349-1.015873 0-0.203175 0.203175-0.406349 0.203175-0.609524v-0.406349c0.203175-0.406349 0.203175-0.609524 0.203174-1.015873-0.203175-0.406349 0-0.609524 0-0.812698-0.203175 0-0.203175 0 0 0-0.203175 0-0.203175 0 0 0z m0 0" fill="#E8CFAC" p-id="18739"></path><path d="M946.590476 474.209524c0.406349-1.422222 0.609524-2.438095 1.219048-3.657143 0.609524-1.219048 1.015873-2.234921 1.625397-3.250794l2.031746-3.047619c0.609524-0.812698 1.625397-1.625397 2.23492-2.64127l0.40635-0.406349c0.609524-0.609524 1.219048-1.015873 1.828571-1.625397l0.812698-0.812698c1.015873-0.609524 1.828571-1.422222 3.047619-2.031746 0.812698-0.609524 1.625397-0.812698 2.438096-1.219048 0.203175 0 0.406349-0.203175 0.609523-0.203174l1.625397-0.609524h0.203175c0.203175 0 0.406349 0 0.609524-0.203175 0.406349 0 0.609524-0.203175 0.812698-0.203174h2.64127c0.406349 0 0.609524 0.203175 1.015873 0.203174h0.203175c0.406349 0.203175 0.609524 0.203175 0.812698 0.40635l-18.488889-10.768254c-0.203175-0.203175-0.406349-0.203175-0.609524-0.40635h-0.609524c-0.203175 0-0.609524-0.203175-0.609523-0.203174h-2.64127c-0.406349 0-0.609524 0.203175-0.812699 0.203174-0.203175 0-0.406349 0-0.609523 0.203175h-0.203175l-1.625397 0.609524h-0.203174s-0.203175 0.203175-0.40635 0.203174c-0.812698 0.406349-1.625397 0.609524-2.438095 1.219048-1.015873 0.609524-2.031746 1.219048-3.047619 2.031746-0.406349 0.203175-0.609524 0.609524-0.812698 0.812698-0.609524 0.609524-1.219048 1.015873-1.625397 1.625397l-0.203175 0.203175-0.406349 0.406349c-0.406349 0.406349-0.609524 0.812698-1.219048 1.219048-0.406349 0.609524-0.609524 0.812698-1.015873 1.422222-0.406349 0.406349-0.609524 0.609524-0.812698 1.015873-0.406349 0.406349-0.609524 0.609524-0.609524 1.219048-0.203175 0.406349-0.406349 0.609524-0.609524 0.812698v0.203175s0 0.203175-0.203174 0.203174l-0.609524 1.015873-0.609524 1.015873-0.609524 1.015873c-0.203175 0.406349-0.406349 0.609524-0.609523 1.219048l-0.609524 1.219047c-0.203175 0.406349-0.203175 0.609524-0.40635 0.812699v0.406349c-0.203175 0.609524-0.406349 1.015873-0.406349 1.625397-0.203175 0.609524-0.203175 0.812698-0.203174 1.422222v0.812699c-0.203175 1.015873-0.203175 2.234921-0.203175 3.250793l18.488889 10.768254c0-1.219048 0.203175-2.438095 0.203175-3.657143v-0.609524c0.609524-1.015873 1.015873-2.234921 1.219047-3.250793z m0 0" fill="#E8CFAC" p-id="18740"></path><path d="M960.203175 456.736508c8.533333-4.87619 14.628571-2.234921 14.628571 7.923809 0 5.079365-1.625397 9.142857-4.673016 15.238096l-15.644444 31.085714 20.31746-11.784127v7.314286l-29.053968 16.863492V516.063492l19.098412-38.196825c1.828571-3.860317 2.64127-6.298413 2.64127-9.346032 0-5.079365-2.64127-7.111111-7.314285-4.469841-3.860317 2.234921-7.314286 6.704762-7.314286 13.206349l-7.111111 4.063492c-0.203175-9.549206 5.688889-19.504762 14.425397-24.584127z m0 0" fill="#FFFFFF" p-id="18741"></path><path d="M784.253968 700.139683c8.533333-4.87619 14.628571-1.828571 14.628572 7.720634 0 6.095238-2.438095 11.377778-6.095238 15.84762 4.266667-0.406349 7.111111 2.438095 7.111111 9.549206 0 11.174603-6.907937 20.72381-15.238096 25.6-8.126984 4.673016-15.034921 3.860317-15.441269-7.314286l7.111111-4.063492c0.406349 5.892063 4.063492 6.298413 8.126984 3.860318 4.673016-2.64127 8.126984-8.126984 8.126984-14.222223 0-5.892063-2.64127-7.92381-8.330159-4.673016l-1.219047 0.609524v-7.111111l1.219047-0.609524c5.079365-3.047619 7.51746-7.92381 7.517461-13.206349 0-5.892063-3.250794-7.111111-7.314286-4.673016-4.266667 2.64127-7.111111 7.314286-7.51746 12.596826l-7.111112 4.063492c0-9.752381 6.501587-19.301587 14.425397-23.974603z m0 0M948.215873 660.926984l5.28254-3.047619 0.203174 7.51746-5.485714 3.047619v8.736508l-6.907936 4.063492-0.203175-8.736507-20.114286 11.580952V676.571429l17.473016-51.60635 7.92381-4.469841-17.473016 51.403175 12.393651-7.111111v-13.409524l7.111111-4.063492v13.612698z m0 0" fill="#C68620" p-id="18742"></path><path d="M800.304762 766.577778l-18.488889-10.768254 18.488889 10.768254m0 0l-18.488889-10.768254c0.203175 0 0.203175 0.203175 0.406349 0.203174l18.488889 10.768254c-0.203175 0-0.406349 0-0.406349-0.203174" fill="#E8CFAC" p-id="18743"></path><path d="M800.507937 766.780952l-18.488889-10.768254c0.203175 0 0.203175 0.203175 0.406349 0.203175l18.488889 10.768254s-0.203175 0-0.406349-0.203175m0.406349 0.203175l-18.285715-10.768254c0.203175 0 0.406349 0 0.40635 0.203175l18.488889 10.768254c-0.203175-0.203175-0.406349-0.203175-0.609524-0.203175" fill="#E8CFAC" p-id="18744"></path><path d="M801.320635 767.187302l-18.488889-10.768254h0.609524l18.488889 10.768254h-0.609524" fill="#E8CFAC" p-id="18745"></path><path d="M801.726984 767.187302l-18.488889-10.768254h0.609524l18.488889 10.768254h-0.609524" fill="#E8CFAC" p-id="18746"></path><path d="M802.336508 767.187302l-18.488889-10.768254h0.609524l18.488889 10.768254h-0.609524" fill="#E8CFAC" p-id="18747"></path><path d="M802.946032 767.187302l-18.488889-10.768254c0.203175 0 0.609524-0.203175 0.609524-0.203175l18.488889 10.768254s-0.406349 0-0.609524 0.203175" fill="#E8CFAC" p-id="18748"></path><path d="M803.555556 766.984127l-18.488889-10.768254c0.406349-0.203175 0.609524-0.203175 1.219047-0.406349l18.488889 10.565079-1.219047 0.609524m1.219047-0.406349L786.285714 755.809524c0.609524-0.203175 1.015873-0.609524 1.625397-0.609524 1.219048-0.609524 2.234921-1.422222 3.047619-2.438095l18.488889 10.768254-3.047619 2.438095c-0.812698 0.203175-1.219048 0.406349-1.625397 0.609524m4.673016-3.250794l-18.488889-10.768254 0.812699-0.812698 18.488888 10.768254c-0.203175 0.406349-0.609524 0.609524-0.812698 0.812698" fill="#E8CFAC" p-id="18749"></path><path d="M810.260317 762.514286l-18.488888-10.768254c0.203175-0.203175 0.406349-0.609524 0.609523-0.609524l18.488889 10.768254-0.609524 0.609524m0.609524-0.812699l-18.488889-10.768254c0.203175-0.203175 0.406349-0.609524 0.609524-0.609523l18.488889 10.768253c-0.406349 0.203175-0.406349 0.406349-0.609524 0.609524" fill="#E8CFAC" p-id="18750"></path><path d="M811.27619 761.092063l-18.488888-10.768253c0.203175-0.203175 0.406349-0.406349 0.406349-0.609524l18.488889 10.768254c0 0.203175-0.203175 0.406349-0.40635 0.609523" fill="#E8CFAC" p-id="18751"></path><path d="M811.68254 760.48254l-18.488889-10.768254c0.203175-0.203175 0.203175-0.406349 0.406349-0.609524l18.488889 10.768254c0 0.203175-0.203175 0.406349-0.406349 0.609524m0.609523-0.609524l-18.488888-10.768254c0.203175-0.203175 0.203175-0.406349 0.406349-0.609524l18.488889 10.768254c-0.406349 0.203175-0.406349 0.406349-0.40635 0.609524" fill="#E8CFAC" p-id="18752"></path><path d="M812.292063 759.263492l-18.488888-10.768254c0.203175-0.203175 0.203175-0.406349 0.406349-0.609524l18.488889 10.768254c0 0.406349-0.203175 0.406349-0.40635 0.609524" fill="#E8CFAC" p-id="18753"></path><path d="M812.698413 758.653968l-18.488889-10.768254c0.203175-0.203175 0.203175-0.406349 0.406349-0.609524l18.488889 10.768254c-0.203175 0.203175-0.203175 0.406349-0.406349 0.609524" fill="#E8CFAC" p-id="18754"></path><path d="M813.104762 758.044444l-18.488889-10.768254c0.203175-0.203175 0.203175-0.609524 0.406349-0.609523l18.488889 10.768254c-0.203175 0.203175-0.406349 0.406349-0.406349 0.609523" fill="#E8CFAC" p-id="18755"></path><path d="M813.307937 757.434921l-18.488889-10.768254c0.203175-0.203175 0.203175-0.609524 0.203174-0.609524l18.488889 10.768254s-0.203175 0.406349-0.203174 0.609524m0.203174-0.609524l-18.488889-10.768254c0.203175-0.406349 0.203175-0.609524 0.203175-0.812699l18.488889 10.768254c0 0.203175 0 0.406349-0.203175 0.812699M813.714286 755.809524l-18.488889-10.768254c0.203175-0.406349 0.203175-0.609524 0.203174-1.015873l18.488889 10.768254c0 0.406349 0 0.812698-0.203174 1.015873m0.406349-1.015873l-18.488889-10.768254c0.203175-0.609524 0.203175-0.812698 0.203175-1.422222l18.488889 10.768254c0 0.609524-0.203175 1.219048-0.203175 1.422222" fill="#E8CFAC" p-id="18756"></path><path d="M814.32381 753.574603l-18.488889-10.768254c0.203175-0.609524 0.203175-1.422222 0.203174-2.031746 0-2.844444-0.609524-4.87619-2.031746-5.892063l18.488889 10.768254c1.422222 0.812698 2.031746 2.64127 2.031746 5.892063-0.203175 0.812698-0.203175 1.422222-0.203174 2.031746" fill="#E8CFAC" p-id="18757"></path><path d="M814.526984 738.133333l-18.488889-10.768254h0.203175l18.488889 10.768254h-0.203175" fill="#BDBDBD" p-id="18758"></path><path d="M814.730159 738.133333l-18.488889-10.768254h0.812698l18.488889 10.768254h-0.812698" fill="#B8B8B8" p-id="18759"></path><path d="M815.542857 738.133333l-18.488889-10.768254c0.203175 0 0.609524 0 0.609524 0.203175l18.488889 10.768254c0-0.203175-0.203175-0.203175-0.609524-0.203175" fill="#B3B3B3" p-id="18760"></path><path d="M816.355556 738.336508l-18.488889-10.768254c0.203175 0 0.609524 0.203175 0.609523 0.203175l18.488889 10.768254c-0.203175-0.203175-0.406349-0.203175-0.609523-0.203175" fill="#ADADAD" p-id="18761"></path><path d="M816.965079 738.336508L798.47619 727.365079c0.203175 0 0.406349 0.203175 0.609524 0.203175l18.488889 10.768254h-0.609524" fill="#A8A8A8" p-id="18762"></path><path d="M817.574603 738.539683l-18.488889-10.768254c0.203175 0 0.406349 0.203175 0.609524 0.406349l18.488889 10.768254c-0.203175-0.203175-0.406349-0.406349-0.609524-0.406349" fill="#A3A3A3" p-id="18763"></path><path d="M818.184127 738.742857l-18.488889-10.768254 18.488889 10.768254" fill="#9E9E9E" p-id="18764"></path><path d="M790.755556 765.968254l-18.285715-10.768254 7.111111-4.063492 18.285715 10.768254-7.111111 4.063492z m0 0" fill="#E8CFAC" p-id="18765"></path><path d="M794.819048 775.111111l-18.488889-10.768254c-2.234921-1.422222-3.860317-4.266667-3.860318-9.142857l18.488889 10.768254c0 4.87619 1.625397 7.720635 3.860318 9.142857M804.774603 747.68254l-18.488889-10.768254v-7.111111l18.488889 10.768254v7.111111z m0 0M813.511111 726.552381c0-0.609524 0-1.422222-0.203174-1.828571-0.406349-1.625397-1.015873-2.844444-1.828572-3.453969l-18.488889-10.768254c1.422222 0.609524 2.031746 2.64127 2.031746 5.28254 0 0.609524 0 1.422222-0.203174 2.031746 0 0.609524-0.203175 1.219048-0.40635 1.625397v0.203174c-0.203175 0.609524-0.406349 1.219048-0.609523 1.625397-0.203175 0.609524-0.609524 1.219048-0.812699 1.625397l-1.015873 1.625397c-0.406349 0.609524-0.609524 0.812698-1.219047 1.422222l-0.203175 0.203175c-0.406349 0.406349-0.609524 0.609524-1.015873 0.812698l-0.609524 0.609524c-0.609524 0.406349-1.219048 0.812698-1.625397 1.219048l-1.219047 0.609523 18.488889 10.768254 1.219047-0.609523c0.609524-0.406349 1.219048-0.609524 1.625397-1.219048l0.609524-0.609524c0.406349-0.406349 0.609524-0.609524 1.015873-0.812698l0.203174-0.203175 0.609524-0.609524 0.609524-0.609524s0-0.203175 0.203175-0.203174c0-0.203175 0.203175-0.203175 0.203174-0.406349 0.203175-0.203175 0.203175-0.406349 0.406349-0.609524 0.203175-0.203175 0.203175-0.406349 0.40635-0.609524l0.203174-0.203175s0-0.203175 0.203175-0.203174c0.203175-0.203175 0.203175-0.406349 0.203174-0.609524s0.203175-0.406349 0.203175-0.609524c0-0.203175 0.203175-0.406349 0.203175-0.609524 0-0.203175 0.203175-0.406349 0.203174-0.609523 0-0.203175 0.203175-0.609524 0.203175-0.609524v-0.812699c0.203175-0.406349 0.203175-0.812698 0.203175-1.219047v-0.203175c0.203175 0 0.203175-0.609524 0.203174-1.422222z m0 0" fill="#E8CFAC" p-id="18766"></path><path d="M806.196825 714.361905c8.533333-4.87619 14.628571-1.828571 14.628572 7.720635 0 6.095238-2.438095 11.377778-6.095238 15.847619 4.266667-0.406349 7.111111 2.438095 7.111111 9.549206 0 11.174603-6.907937 20.72381-15.238095 25.6-8.126984 4.673016-15.034921 3.860317-15.44127-7.314286l7.111111-4.063492c0.406349 5.892063 4.063492 6.298413 8.126984 3.860318 4.673016-2.64127 8.126984-8.126984 8.126984-14.222222 0-5.892063-2.64127-7.92381-8.330159-4.673016l-1.422222 0.609523v-7.111111l1.219048-0.609523c5.079365-3.047619 7.51746-7.92381 7.51746-13.20635 0-5.892063-3.250794-7.111111-7.314286-4.673016-4.266667 2.64127-7.111111 7.314286-7.51746 12.596826l-7.111111 4.063492c0.203175-9.752381 6.501587-19.301587 14.628571-23.974603z m0 0" fill="#FFFFFF" p-id="18767"></path><path d="M810.057143 712.736508c0.203175 0 0.406349-0.203175 0.609524-0.203175 0.203175 0 0.406349-0.203175 0.609523-0.203174 0.406349 0 0.609524-0.203175 0.812699-0.203175h1.625397c0.406349 0 0.609524 0 1.015873 0.203175 0.406349 0 0.609524 0.203175 1.015873 0.406349h0.203174c0.406349 0.203175 0.609524 0.406349 0.812699 0.609524l-18.488889-10.768254c-0.203175-0.203175-0.609524-0.203175-0.609524-0.406349h-0.406349s-0.203175 0-0.203175-0.203175c-0.203175 0-0.609524-0.203175-0.609524-0.203175-0.203175 0-0.609524 0-0.609523-0.203174h-2.031746c-0.203175 0-0.406349 0.203175-0.609524 0.203174-0.203175 0-0.406349 0-0.609524 0.203175h-0.203175c-0.203175 0-0.203175 0-0.406349 0.203175-0.406349 0.203175-0.812698 0.406349-1.422222 0.609523-0.203175 0-0.203175 0-0.203175 0.203175-0.203175 0-0.203175 0.203175-0.406349 0.203175-0.609524 0.406349-1.625397 0.609524-2.23492 1.219047-1.015873 0.609524-2.031746 1.219048-2.844445 1.828572l-0.609524 0.609523c-0.609524 0.609524-1.422222 1.219048-2.031746 1.828572l-1.625397 1.625397c-0.203175 0.406349-0.609524 0.609524-0.609523 0.812698l-0.203175 0.203175-0.203175 0.203174c-0.406349 0.406349-0.609524 0.812698-0.812698 1.219048-0.406349 0.406349-0.609524 0.609524-0.609524 1.219048 0 0.203175-0.203175 0.203175-0.203174 0.406349 0 0 0 0.203175-0.203175 0.203174-0.203175 0.203175-0.406349 0.406349-0.406349 0.609524-0.203175 0.406349-0.406349 0.609524-0.609524 1.015873l-0.609524 1.015873c0 0.203175-0.203175 0.203175-0.203174 0.406349v0.203175c-0.203175 0.203175-0.203175 0.609524-0.40635 0.609524l-0.609523 1.219047-0.609524 1.219048v0.406349c-0.203175 0.406349-0.203175 0.609524-0.40635 1.015873-0.203175 0.609524-0.406349 1.015873-0.406349 1.625397 0 0.203175 0 0.406349-0.203174 0.609524 0 0.203175 0 0.609524-0.203175 0.609524 0 0.406349-0.203175 0.609524-0.203175 1.015873-0.203175 0.609524-0.203175 1.625397-0.203174 2.438095l18.488889 10.768254c0-1.219048 0.203175-2.234921 0.406349-3.453968 0-0.203175 0-0.609524 0.203175-0.609524 0.203175-1.015873 0.609524-2.234921 0.812698-3.250794v-0.203174c0.406349-1.219048 0.812698-2.234921 1.422222-3.250794v-0.203175c0.609524-1.015873 1.015873-2.031746 1.625397-3.047619 0 0 0-0.203175 0.203175-0.203174 0.609524-1.015873 1.422222-1.828571 2.031746-2.844445l0.203174-0.203174c0.609524-0.812698 1.625397-1.625397 2.234921-2.64127 0.609524-0.609524 1.422222-1.219048 2.031746-1.828572l0.609524-0.609523c0.812698-0.609524 1.828571-1.422222 2.844444-1.828572 0.812698-0.609524 1.625397-0.812698 2.234921-1.219047 0.203175 0 0.406349-0.203175 0.609524-0.203175 0.609524-0.812698 1.219048-1.015873 1.422222-1.015873z m0 0M969.955556 672.304762l-18.488889-10.768254 5.485714-3.047619 18.285714 10.565079-5.282539 3.250794z m-6.704762 20.31746l-18.488889-10.565079v-8.736508l18.285714 10.768254 0.203175 8.533333z m0 0" fill="#E8CFAC" p-id="18768"></path><path d="M963.047619 676.368254l-18.285714-10.768254-0.203175-13.409524 18.488889 10.768254v13.409524z m0-13.409524l-18.488889-10.768254 7.111111-4.063492 18.488889 10.768254-7.111111 4.063492z m0 0" fill="#E8CFAC" p-id="18769"></path><path d="M950.450794 683.479365l-18.285715-10.768254 12.596826-7.111111 18.285714 10.768254-12.596825 7.111111z m-7.720635 12.190476l-18.488889-10.565079v-7.720635l18.488889 10.565079v7.720635z m17.473016-59.123809l-18.285715-10.768254 7.720635-4.469841 18.488889 10.768253-7.923809 4.469842z m0 0" fill="#E8CFAC" p-id="18770"></path><path d="M942.730159 687.949206l-18.488889-10.565079 17.67619-51.606349 18.285715 10.768254-17.473016 51.403174z m0 0" fill="#E8CFAC" p-id="18771"></path><path d="M969.955556 672.304762l5.282539-3.250794v7.720635l-5.282539 3.047619v8.736508l-6.907937 3.860318-0.203175-8.533334-20.114285 11.580953v-7.720635l17.473016-51.403175 7.923809-4.469841-17.67619 51.403174 12.596825-7.111111v-13.409523l7.111111-4.063493v13.612699z m0 0" fill="#FFFFFF" p-id="18772"></path></svg>