<?xml version="1.0" standalone="no"?><!DOCTYPE svg PUBLIC "-//W3C//DTD SVG 1.1//EN" "http://www.w3.org/Graphics/SVG/1.1/DTD/svg11.dtd"><svg t="1690251347155" class="icon" viewBox="0 0 1024 1024" version="1.1" xmlns="http://www.w3.org/2000/svg" p-id="1940" xmlns:xlink="http://www.w3.org/1999/xlink" width="16" height="16"><path d="M702.3 364c-41.2 0-79.4 18.8-113.1 41.9-26.3 18.1-52.3 40.6-77.2 63.1-24.9-22.6-50.9-45.1-77.2-63.1-33.7-23.2-71.9-41.9-113.1-41.9-81 0-148 67.1-148 148s67.1 148 148 148c41.2 0 79.4-18.8 113.1-41.9 26.3-18.1 52.3-40.6 77.2-63.1 24.9 22.6 50.9 45.1 77.2 63.1 33.7 23.2 71.9 41.9 113.1 41.9 81 0 148-67.1 148-148s-67-148-148-148zM398.9 565.8c-29.7 20.4-55 30.8-77.2 30.8-45.9 0-84.6-38.7-84.6-84.6s38.7-84.6 84.6-84.6c22.2 0 47.4 10.3 77.2 30.8 21.5 14.8 43.3 33.4 66 53.8-22.7 20.4-44.5 39-66 53.8z m303.4 30.8c-22.2 0-47.4-10.3-77.2-30.8-21.5-14.8-43.3-33.4-66-53.8 22.7-20.4 44.5-39 66-53.8 29.7-20.4 55-30.8 77.2-30.8 45.9 0 84.6 38.7 84.6 84.6s-38.7 84.6-84.6 84.6z" p-id="1941" fill="#008184"></path></svg>