<?xml version="1.0" standalone="no"?><!DOCTYPE svg PUBLIC "-//W3C//DTD SVG 1.1//EN" "http://www.w3.org/Graphics/SVG/1.1/DTD/svg11.dtd"><svg t="1690299120836" class="icon" viewBox="0 0 1024 1024" version="1.1" xmlns="http://www.w3.org/2000/svg" p-id="1529" xmlns:xlink="http://www.w3.org/1999/xlink" width="200" height="200"><path d="M510.909935 468.001032c-4.459355 0-8.91871-0.908387-13.014709-2.659097l-163.509678-69.962322a33.114839 33.114839 0 0 1 26.062452-60.878452l150.395871 64.346839 123.028645-53.248a33.114839 33.114839 0 1 1 26.293678 60.779355l-136.092904 58.896516a33.114839 33.114839 0 0 1-13.163355 2.725161z m328.737033-142.253419a33.114839 33.114839 0 0 1-13.163355-63.504516l65.073548-28.16-383.306322-164.930065-382.909936 164.764903 54.172903 23.17213a33.114839 33.114839 0 0 1-26.045935 60.894967L28.341677 264.423226a33.114839 33.114839 0 0 1-0.066064-60.84542L495.153548 2.692129a33.114839 33.114839 0 0 1 26.178065 0l466.877935 200.902194a33.114839 33.114839 0 0 1 0.066065 60.795871l-135.481807 58.632258c-4.145548 1.800258-8.621419 2.725161-13.146838 2.725161zM442.021161 1012.405677c-4.789677 0-9.579355-1.024-14.038709-3.138064L27.334194 821.710452A33.114839 33.114839 0 0 1 8.258065 791.700645V368.260129a33.114839 33.114839 0 0 1 45.898322-30.554839l400.648258 167.770839a33.114839 33.114839 0 0 1 20.314839 30.554839v443.259871a33.114839 33.114839 0 0 1-33.098323 33.114838zM74.487742 770.642581l334.418581 156.589419V558.046968L74.487742 418.023226v352.619355zM571.127742 1012.405677a33.114839 33.114839 0 0 1-33.114839-33.114838V538.590968c0-13.278968 7.927742-25.269677 20.149678-30.472258l400.664774-170.330839a33.114839 33.114839 0 0 1 46.063484 30.472258v443.276387c0 13.345032-8.010323 25.38529-20.314839 30.538323L583.911226 1009.845677a33.06529 33.06529 0 0 1-12.783484 2.56z m33.114839-451.914322V929.527742l334.41858-140.056774V418.337032l-334.41858 142.170839z" fill="#515151" p-id="1530"></path><path d="M433.944774 806.350452c-4.39329 0-8.852645-0.891871-13.146839-2.741678L154.244129 688.128a33.114839 33.114839 0 0 1 26.32671-60.762839l266.553806 115.480774a33.114839 33.114839 0 0 1-13.179871 63.504517z" fill="#515151" p-id="1531"></path><path d="M442.169806 804.632774c-13.361548 0-30.158452-8.142452-35.179354-21.355355a33.114839 33.114839 0 0 1 19.191742-42.710709L685.419355 643.451871a33.114839 33.114839 0 1 1 23.518968 61.918968l-259.237162 97.098322c-3.864774 1.469935-3.633548 2.163613-7.531355 2.163613z" fill="#515151" p-id="1532"></path></svg>